<?xml version="1.0" encoding="utf-8"?>
<!-- Generator: Adobe Illustrator 16.0.0, SVG Export Plug-In . SVG Version: 6.00 Build 0)  -->
<!DOCTYPE svg PUBLIC "-//W3C//DTD SVG 1.1//EN" "http://www.w3.org/Graphics/SVG/1.1/DTD/svg11.dtd">
<svg version="1.1" id="Layer_1" xmlns="http://www.w3.org/2000/svg" xmlns:xlink="http://www.w3.org/1999/xlink" x="0px" y="0px"
	 width="595.279px" height="841.89px" viewBox="0 0 595.279 841.89" enable-background="new 0 0 595.279 841.89"
	 xml:space="preserve">
<g transform="scale(1,1) scale(1,1)">
	<path fill="#F7C917" d="M0,0v99.213h99.213L0,0z"/>
	<path fill="#76C1D5" d="M0,0h99.213v99.213L0,0z"/>
	<path fill="#F7C917" d="M0,99.213v99.213h99.213L0,99.213z"/>
	<path fill="#76C1D5" d="M0,99.213h99.213v99.213L0,99.213z"/>
	<path fill="#F7C917" d="M0,198.427v99.213h99.213L0,198.427z"/>
	<path fill="#F7C917" d="M0,198.427h99.213v99.213L0,198.427z"/>
	<path fill="#F7C917" d="M0,297.64v99.213h99.213L0,297.64z"/>
	<path fill="#76C1D5" d="M0,297.64h99.213v99.213L0,297.64z"/>
	<path fill="#E6315A" d="M0,396.854v99.212h99.213L0,396.854z"/>
	<path fill="#76C1D5" d="M0,396.854h99.213v99.212L0,396.854z"/>
	<path fill="#E6315A" d="M0,496.066v99.215h99.213L0,496.066z"/>
	<path fill="#F7C917" d="M0,496.066h99.213v99.215L0,496.066z"/>
	<path fill="#76C1D5" d="M0,595.281v99.213h99.213L0,595.281z"/>
	<path fill="#E6315A" d="M0,595.281h99.213v99.213L0,595.281z"/>
	<path fill="#76C1D5" d="M0,694.494v99.213h99.213L0,694.494z"/>
	<path fill="#76C1D5" d="M0,694.494h99.213v99.213L0,694.494z"/>
	<path fill="#F7C917" d="M0,793.707v99.213h99.213L0,793.707z"/>
	<path fill="#E6315A" d="M0,793.707h99.213v99.213L0,793.707z"/>
	<path fill="#E6315A" d="M99.213,0v99.213h99.214L99.213,0z"/>
	<path fill="#E6315A" d="M99.213,0h99.214v99.213L99.213,0z"/>
	<path fill="#E6315A" d="M99.213,99.213v99.213h99.214L99.213,99.213z"/>
	<path fill="#E6315A" d="M99.213,99.213h99.214v99.213L99.213,99.213z"/>
	<path fill="#E6315A" d="M99.213,198.427v99.213h99.214L99.213,198.427z"/>
	<path fill="#E6315A" d="M99.213,198.427h99.214v99.213L99.213,198.427z"/>
	<path fill="#E6315A" d="M99.213,297.64v99.213h99.214L99.213,297.64z"/>
	<path fill="#E6315A" d="M99.213,297.64h99.214v99.213L99.213,297.64z"/>
	<path fill="#F7C917" d="M99.213,396.854v99.212h99.214L99.213,396.854z"/>
	<path fill="#E6315A" d="M99.213,396.854h99.214v99.212L99.213,396.854z"/>
	<path fill="#E6315A" d="M99.213,496.066v99.215h99.214L99.213,496.066z"/>
	<path fill="#E6315A" d="M99.213,496.066h99.214v99.215L99.213,496.066z"/>
	<path fill="#76C1D5" d="M99.213,595.281v99.213h99.214L99.213,595.281z"/>
	<path fill="#E6315A" d="M99.213,595.281h99.214v99.213L99.213,595.281z"/>
	<path fill="#76C1D5" d="M99.213,694.494v99.213h99.214L99.213,694.494z"/>
	<path fill="#F7C917" d="M99.213,694.494h99.214v99.213L99.213,694.494z"/>
	<path fill="#76C1D5" d="M99.213,793.707v99.213h99.214L99.213,793.707z"/>
	<path fill="#76C1D5" d="M99.213,793.707h99.214v99.213L99.213,793.707z"/>
	<path fill="#76C1D5" d="M198.427,0v99.213h99.213L198.427,0z"/>
	<path fill="#F7C917" d="M198.427,0h99.213v99.213L198.427,0z"/>
	<path fill="#76C1D5" d="M198.427,99.213v99.213h99.213L198.427,99.213z"/>
	<path fill="#F7C917" d="M198.427,99.213h99.213v99.213L198.427,99.213z"/>
	<path fill="#F7C917" d="M198.427,198.427v99.213h99.213L198.427,198.427z"/>
	<path fill="#F7C917" d="M198.427,198.427h99.213v99.213L198.427,198.427z"/>
	<path fill="#76C1D5" d="M198.427,297.64v99.213h99.213L198.427,297.64z"/>
	<path fill="#E6315A" d="M198.427,297.64h99.213v99.213L198.427,297.64z"/>
	<path fill="#76C1D5" d="M198.427,396.854v99.212h99.213L198.427,396.854z"/>
	<path fill="#F7C917" d="M198.427,396.854h99.213v99.212L198.427,396.854z"/>
	<path fill="#F7C917" d="M198.427,496.066v99.215h99.213L198.427,496.066z"/>
	<path fill="#E6315A" d="M198.427,496.066h99.213v99.215L198.427,496.066z"/>
	<path fill="#E6315A" d="M198.427,595.281v99.213h99.213L198.427,595.281z"/>
	<path fill="#E6315A" d="M198.427,595.281h99.213v99.213L198.427,595.281z"/>
	<path fill="#F7C917" d="M198.427,694.494v99.213h99.213L198.427,694.494z"/>
	<path fill="#76C1D5" d="M198.427,694.494h99.213v99.213L198.427,694.494z"/>
	<path fill="#F7C917" d="M198.427,793.707v99.213h99.213L198.427,793.707z"/>
	<path fill="#F7C917" d="M198.427,793.707h99.213v99.213L198.427,793.707z"/>
	<path fill="#F7C917" d="M297.64,0v99.213h99.213L297.64,0z"/>
	<path fill="#F7C917" d="M297.64,0h99.213v99.213L297.64,0z"/>
	<path fill="#76C1D5" d="M297.64,99.213v99.213h99.213L297.64,99.213z"/>
	<path fill="#F7C917" d="M297.64,99.213h99.213v99.213L297.64,99.213z"/>
	<path fill="#76C1D5" d="M297.64,198.427v99.213h99.213L297.64,198.427z"/>
	<path fill="#76C1D5" d="M297.64,198.427h99.213v99.213L297.64,198.427z"/>
	<path fill="#76C1D5" d="M297.64,297.64v99.213h99.213L297.64,297.64z"/>
	<path fill="#F7C917" d="M297.64,297.64h99.213v99.213L297.64,297.64z"/>
	<path fill="#E6315A" d="M297.64,396.854v99.212h99.213L297.64,396.854z"/>
	<path fill="#76C1D5" d="M297.64,396.854h99.213v99.212L297.64,396.854z"/>
	<path fill="#F7C917" d="M297.64,496.066v99.215h99.213L297.64,496.066z"/>
	<path fill="#F7C917" d="M297.64,496.066h99.213v99.215L297.64,496.066z"/>
	<path fill="#E6315A" d="M297.64,595.281v99.213h99.213L297.64,595.281z"/>
	<path fill="#F7C917" d="M297.64,595.281h99.213v99.213L297.64,595.281z"/>
	<path fill="#E6315A" d="M297.64,694.494v99.213h99.213L297.64,694.494z"/>
	<path fill="#E6315A" d="M297.64,694.494h99.213v99.213L297.64,694.494z"/>
	<path fill="#76C1D5" d="M297.64,793.707v99.213h99.213L297.64,793.707z"/>
	<path fill="#76C1D5" d="M297.64,793.707h99.213v99.213L297.64,793.707z"/>
	<path fill="#F7C917" d="M396.853,0v99.213h99.214L396.853,0z"/>
	<path fill="#F7C917" d="M396.853,0h99.214v99.213L396.853,0z"/>
	<path fill="#E6315A" d="M396.853,99.213v99.213h99.214L396.853,99.213z"/>
	<path fill="#76C1D5" d="M396.853,99.213h99.214v99.213L396.853,99.213z"/>
	<path fill="#76C1D5" d="M396.853,198.427v99.213h99.214L396.853,198.427z"/>
	<path fill="#E6315A" d="M396.853,198.427h99.214v99.213L396.853,198.427z"/>
	<path fill="#76C1D5" d="M396.853,297.64v99.213h99.214L396.853,297.64z"/>
	<path fill="#E6315A" d="M396.853,297.64h99.214v99.213L396.853,297.64z"/>
	<path fill="#76C1D5" d="M396.853,396.854v99.212h99.214L396.853,396.854z"/>
	<path fill="#F7C917" d="M396.853,396.854h99.214v99.212L396.853,396.854z"/>
	<path fill="#76C1D5" d="M396.853,496.066v99.215h99.214L396.853,496.066z"/>
	<path fill="#E6315A" d="M396.853,496.066h99.214v99.215L396.853,496.066z"/>
	<path fill="#E6315A" d="M396.853,595.281v99.213h99.214L396.853,595.281z"/>
	<path fill="#E6315A" d="M396.853,595.281h99.214v99.213L396.853,595.281z"/>
	<path fill="#E6315A" d="M396.853,694.494v99.213h99.214L396.853,694.494z"/>
	<path fill="#E6315A" d="M396.853,694.494h99.214v99.213L396.853,694.494z"/>
	<path fill="#E6315A" d="M396.853,793.707v99.213h99.214L396.853,793.707z"/>
	<path fill="#F7C917" d="M396.853,793.707h99.214v99.213L396.853,793.707z"/>
	<path fill="#F7C917" d="M496.067,0v99.213h99.213L496.067,0z"/>
	<path fill="#F7C917" d="M496.067,0h99.213v99.213L496.067,0z"/>
	<path fill="#E6315A" d="M496.067,99.213v99.213h99.213L496.067,99.213z"/>
	<path fill="#E6315A" d="M496.067,99.213h99.213v99.213L496.067,99.213z"/>
	<path fill="#76C1D5" d="M496.067,198.427v99.213h99.213L496.067,198.427z"/>
	<path fill="#F7C917" d="M496.067,198.427h99.213v99.213L496.067,198.427z"/>
	<path fill="#76C1D5" d="M496.067,297.64v99.213h99.213L496.067,297.64z"/>
	<path fill="#E6315A" d="M496.067,297.64h99.213v99.213L496.067,297.64z"/>
	<path fill="#76C1D5" d="M496.067,396.854v99.212h99.213L496.067,396.854z"/>
	<path fill="#E6315A" d="M496.067,396.854h99.213v99.212L496.067,396.854z"/>
	<path fill="#E6315A" d="M496.067,496.066v99.215h99.213L496.067,496.066z"/>
	<path fill="#76C1D5" d="M496.067,496.066h99.213v99.215L496.067,496.066z"/>
	<path fill="#F7C917" d="M496.067,595.281v99.213h99.213L496.067,595.281z"/>
	<path fill="#76C1D5" d="M496.067,595.281h99.213v99.213L496.067,595.281z"/>
	<path fill="#E6315A" d="M496.067,694.494v99.213h99.213L496.067,694.494z"/>
	<path fill="#E6315A" d="M496.067,694.494h99.213v99.213L496.067,694.494z"/>
	<path fill="#76C1D5" d="M496.067,793.707v99.213h99.213L496.067,793.707z"/>
	<path fill="#E6315A" d="M496.067,793.707h99.213v99.213L496.067,793.707z"/>
</g>
<polygon fill-rule="evenodd" clip-rule="evenodd" fill="#E4F3F7" points="197.427,692.713 294.598,790.298 197.427,790.298 "/>
<polygon fill-rule="evenodd" clip-rule="evenodd" fill="#E4F3F7" points="293.579,692.713 246.013,740.479 198.449,692.713 
	246.013,644.952 "/>
<g>
	<polygon fill-rule="evenodd" clip-rule="evenodd" fill="#E4F3F7" points="351.85,692.459 447.994,594.358 447.994,697.079 
		351.85,790.044 	"/>
	<polygon fill-rule="evenodd" clip-rule="evenodd" fill="#E4F3F7" points="399.411,644.181 351.85,691.947 351.85,596.411 	"/>
</g>
<polygon fill-rule="evenodd" clip-rule="evenodd" fill="#E4F3F7" points="497.125,695.026 593.28,793.125 593.28,690.401 
	497.125,597.439 "/>
<polygon fill-rule="evenodd" clip-rule="evenodd" fill="#E4F3F7" points="544.692,743.302 497.125,695.539 497.125,791.069 "/>
<polygon fill-rule="evenodd" clip-rule="evenodd" fill="#E4F3F7" points="294.598,595.638 197.428,693.225 197.428,595.638 "/>
<rect x="110.025" y="800.244" fill-rule="evenodd" clip-rule="evenodd" fill="none" width="477.953" height="41.646"/>
<text transform="matrix(1 0 0 1 214.4036 824.144)" fill="#FFFFFF" font-family="'LucidaSans-Typewriter'" font-size="31">Visual Arts Festival</text>
</svg>
