<svg version="1.1" xmlns="http://www.w3.org/2000/svg" xmlns:xlink="http://www.w3.org/1999/xlink" width="595.28" height="841.89" viewBox="0 0 595.28 841.89"><defs/><g transform="scale(1,1) scale(1,1)"><path fill="rgb(247,201,23)" stroke="none" paint-order="stroke fill markers" d=" M 0 0 L 0 99.21333333333332 L 99.21333333333332 99.21333333333332 Z" fill-opacity="1"/><path fill="rgb(230,49,90)" stroke="none" paint-order="stroke fill markers" d=" M 0 0 L 99.21333333333332 0 L 99.21333333333332 99.21333333333332 Z" fill-opacity="1"/><path fill="rgb(118,193,213)" stroke="none" paint-order="stroke fill markers" d=" M 0 99.21333333333332 L 0 198.42666666666665 L 99.21333333333332 198.42666666666665 Z" fill-opacity="1"/><path fill="rgb(230,49,90)" stroke="none" paint-order="stroke fill markers" d=" M 0 99.21333333333332 L 99.21333333333332 99.21333333333332 L 99.21333333333332 198.42666666666665 Z" fill-opacity="1"/><path fill="rgb(247,201,23)" stroke="none" paint-order="stroke fill markers" d=" M 0 198.42666666666665 L 0 297.64 L 99.21333333333332 297.64 Z" fill-opacity="1"/><path fill="rgb(230,49,90)" stroke="none" paint-order="stroke fill markers" d=" M 0 198.42666666666665 L 99.21333333333332 198.42666666666665 L 99.21333333333332 297.64 Z" fill-opacity="1"/><path fill="rgb(230,49,90)" stroke="none" paint-order="stroke fill markers" d=" M 0 297.64 L 0 396.8533333333333 L 99.21333333333332 396.8533333333333 Z" fill-opacity="1"/><path fill="rgb(118,193,213)" stroke="none" paint-order="stroke fill markers" d=" M 0 297.64 L 99.21333333333332 297.64 L 99.21333333333332 396.8533333333333 Z" fill-opacity="1"/><path fill="rgb(230,49,90)" stroke="none" paint-order="stroke fill markers" d=" M 0 396.8533333333333 L 0 496.0666666666666 L 99.21333333333332 496.0666666666666 Z" fill-opacity="1"/><path fill="rgb(230,49,90)" stroke="none" paint-order="stroke fill markers" d=" M 0 396.8533333333333 L 99.21333333333332 396.8533333333333 L 99.21333333333332 496.0666666666666 Z" fill-opacity="1"/><path fill="rgb(230,49,90)" stroke="none" paint-order="stroke fill markers" d=" M 0 496.0666666666666 L 0 595.28 L 99.21333333333332 595.28 Z" fill-opacity="1"/><path fill="rgb(247,201,23)" stroke="none" paint-order="stroke fill markers" d=" M 0 496.0666666666666 L 99.21333333333332 496.0666666666666 L 99.21333333333332 595.28 Z" fill-opacity="1"/><path fill="rgb(118,193,213)" stroke="none" paint-order="stroke fill markers" d=" M 0 595.28 L 0 694.4933333333333 L 99.21333333333332 694.4933333333333 Z" fill-opacity="1"/><path fill="rgb(230,49,90)" stroke="none" paint-order="stroke fill markers" d=" M 0 595.28 L 99.21333333333332 595.28 L 99.21333333333332 694.4933333333333 Z" fill-opacity="1"/><path fill="rgb(230,49,90)" stroke="none" paint-order="stroke fill markers" d=" M 0 694.4933333333332 L 0 793.7066666666666 L 99.21333333333332 793.7066666666666 Z" fill-opacity="1"/><path fill="rgb(230,49,90)" stroke="none" paint-order="stroke fill markers" d=" M 0 694.4933333333332 L 99.21333333333332 694.4933333333332 L 99.21333333333332 793.7066666666666 Z" fill-opacity="1"/><path fill="rgb(247,201,23)" stroke="none" paint-order="stroke fill markers" d=" M 0 793.7066666666666 L 0 892.92 L 99.21333333333332 892.92 Z" fill-opacity="1"/><path fill="rgb(230,49,90)" stroke="none" paint-order="stroke fill markers" d=" M 0 793.7066666666666 L 99.21333333333332 793.7066666666666 L 99.21333333333332 892.92 Z" fill-opacity="1"/><path fill="rgb(247,201,23)" stroke="none" paint-order="stroke fill markers" d=" M 99.21333333333332 0 L 99.21333333333332 99.21333333333332 L 198.42666666666665 99.21333333333332 Z" fill-opacity="1"/><path fill="rgb(230,49,90)" stroke="none" paint-order="stroke fill markers" d=" M 99.21333333333332 0 L 198.42666666666665 0 L 198.42666666666665 99.21333333333332 Z" fill-opacity="1"/><path fill="rgb(230,49,90)" stroke="none" paint-order="stroke fill markers" d=" M 99.21333333333332 99.21333333333332 L 99.21333333333332 198.42666666666665 L 198.42666666666665 198.42666666666665 Z" fill-opacity="1"/><path fill="rgb(247,201,23)" stroke="none" paint-order="stroke fill markers" d=" M 99.21333333333332 99.21333333333332 L 198.42666666666665 99.21333333333332 L 198.42666666666665 198.42666666666665 Z" fill-opacity="1"/><path fill="rgb(230,49,90)" stroke="none" paint-order="stroke fill markers" d=" M 99.21333333333332 198.42666666666665 L 99.21333333333332 297.64 L 198.42666666666665 297.64 Z" fill-opacity="1"/><path fill="rgb(247,201,23)" stroke="none" paint-order="stroke fill markers" d=" M 99.21333333333332 198.42666666666665 L 198.42666666666665 198.42666666666665 L 198.42666666666665 297.64 Z" fill-opacity="1"/><path fill="rgb(247,201,23)" stroke="none" paint-order="stroke fill markers" d=" M 99.21333333333332 297.64 L 99.21333333333332 396.8533333333333 L 198.42666666666665 396.8533333333333 Z" fill-opacity="1"/><path fill="rgb(118,193,213)" stroke="none" paint-order="stroke fill markers" d=" M 99.21333333333332 297.64 L 198.42666666666665 297.64 L 198.42666666666665 396.8533333333333 Z" fill-opacity="1"/><path fill="rgb(230,49,90)" stroke="none" paint-order="stroke fill markers" d=" M 99.21333333333332 396.8533333333333 L 99.21333333333332 496.0666666666666 L 198.42666666666665 496.0666666666666 Z" fill-opacity="1"/><path fill="rgb(118,193,213)" stroke="none" paint-order="stroke fill markers" d=" M 99.21333333333332 396.8533333333333 L 198.42666666666665 396.8533333333333 L 198.42666666666665 496.0666666666666 Z" fill-opacity="1"/><path fill="rgb(247,201,23)" stroke="none" paint-order="stroke fill markers" d=" M 99.21333333333332 496.0666666666666 L 99.21333333333332 595.28 L 198.42666666666665 595.28 Z" fill-opacity="1"/><path fill="rgb(118,193,213)" stroke="none" paint-order="stroke fill markers" d=" M 99.21333333333332 496.0666666666666 L 198.42666666666665 496.0666666666666 L 198.42666666666665 595.28 Z" fill-opacity="1"/><path fill="rgb(230,49,90)" stroke="none" paint-order="stroke fill markers" d=" M 99.21333333333332 595.28 L 99.21333333333332 694.4933333333333 L 198.42666666666665 694.4933333333333 Z" fill-opacity="1"/><path fill="rgb(247,201,23)" stroke="none" paint-order="stroke fill markers" d=" M 99.21333333333332 595.28 L 198.42666666666665 595.28 L 198.42666666666665 694.4933333333333 Z" fill-opacity="1"/><path fill="rgb(230,49,90)" stroke="none" paint-order="stroke fill markers" d=" M 99.21333333333332 694.4933333333332 L 99.21333333333332 793.7066666666666 L 198.42666666666665 793.7066666666666 Z" fill-opacity="1"/><path fill="rgb(247,201,23)" stroke="none" paint-order="stroke fill markers" d=" M 99.21333333333332 694.4933333333332 L 198.42666666666665 694.4933333333332 L 198.42666666666665 793.7066666666666 Z" fill-opacity="1"/><path fill="rgb(247,201,23)" stroke="none" paint-order="stroke fill markers" d=" M 99.21333333333332 793.7066666666666 L 99.21333333333332 892.92 L 198.42666666666665 892.92 Z" fill-opacity="1"/><path fill="rgb(118,193,213)" stroke="none" paint-order="stroke fill markers" d=" M 99.21333333333332 793.7066666666666 L 198.42666666666665 793.7066666666666 L 198.42666666666665 892.92 Z" fill-opacity="1"/><path fill="rgb(247,201,23)" stroke="none" paint-order="stroke fill markers" d=" M 198.42666666666665 0 L 198.42666666666665 99.21333333333332 L 297.64 99.21333333333332 Z" fill-opacity="1"/><path fill="rgb(247,201,23)" stroke="none" paint-order="stroke fill markers" d=" M 198.42666666666665 0 L 297.64 0 L 297.64 99.21333333333332 Z" fill-opacity="1"/><path fill="rgb(118,193,213)" stroke="none" paint-order="stroke fill markers" d=" M 198.42666666666665 99.21333333333332 L 198.42666666666665 198.42666666666665 L 297.64 198.42666666666665 Z" fill-opacity="1"/><path fill="rgb(118,193,213)" stroke="none" paint-order="stroke fill markers" d=" M 198.42666666666665 99.21333333333332 L 297.64 99.21333333333332 L 297.64 198.42666666666665 Z" fill-opacity="1"/><path fill="rgb(247,201,23)" stroke="none" paint-order="stroke fill markers" d=" M 198.42666666666665 198.42666666666665 L 198.42666666666665 297.64 L 297.64 297.64 Z" fill-opacity="1"/><path fill="rgb(247,201,23)" stroke="none" paint-order="stroke fill markers" d=" M 198.42666666666665 198.42666666666665 L 297.64 198.42666666666665 L 297.64 297.64 Z" fill-opacity="1"/><path fill="rgb(230,49,90)" stroke="none" paint-order="stroke fill markers" d=" M 198.42666666666665 297.64 L 198.42666666666665 396.8533333333333 L 297.64 396.8533333333333 Z" fill-opacity="1"/><path fill="rgb(118,193,213)" stroke="none" paint-order="stroke fill markers" d=" M 198.42666666666665 297.64 L 297.64 297.64 L 297.64 396.8533333333333 Z" fill-opacity="1"/><path fill="rgb(118,193,213)" stroke="none" paint-order="stroke fill markers" d=" M 198.42666666666665 396.8533333333333 L 198.42666666666665 496.0666666666666 L 297.64 496.0666666666666 Z" fill-opacity="1"/><path fill="rgb(230,49,90)" stroke="none" paint-order="stroke fill markers" d=" M 198.42666666666665 396.8533333333333 L 297.64 396.8533333333333 L 297.64 496.0666666666666 Z" fill-opacity="1"/><path fill="rgb(118,193,213)" stroke="none" paint-order="stroke fill markers" d=" M 198.42666666666665 496.0666666666666 L 198.42666666666665 595.28 L 297.64 595.28 Z" fill-opacity="1"/><path fill="rgb(230,49,90)" stroke="none" paint-order="stroke fill markers" d=" M 198.42666666666665 496.0666666666666 L 297.64 496.0666666666666 L 297.64 595.28 Z" fill-opacity="1"/><path fill="rgb(118,193,213)" stroke="none" paint-order="stroke fill markers" d=" M 198.42666666666665 595.28 L 198.42666666666665 694.4933333333333 L 297.64 694.4933333333333 Z" fill-opacity="1"/><path fill="rgb(247,201,23)" stroke="none" paint-order="stroke fill markers" d=" M 198.42666666666665 595.28 L 297.64 595.28 L 297.64 694.4933333333333 Z" fill-opacity="1"/><path fill="rgb(118,193,213)" stroke="none" paint-order="stroke fill markers" d=" M 198.42666666666665 694.4933333333332 L 198.42666666666665 793.7066666666666 L 297.64 793.7066666666666 Z" fill-opacity="1"/><path fill="rgb(118,193,213)" stroke="none" paint-order="stroke fill markers" d=" M 198.42666666666665 694.4933333333332 L 297.64 694.4933333333332 L 297.64 793.7066666666666 Z" fill-opacity="1"/><path fill="rgb(230,49,90)" stroke="none" paint-order="stroke fill markers" d=" M 198.42666666666665 793.7066666666666 L 198.42666666666665 892.92 L 297.64 892.92 Z" fill-opacity="1"/><path fill="rgb(247,201,23)" stroke="none" paint-order="stroke fill markers" d=" M 198.42666666666665 793.7066666666666 L 297.64 793.7066666666666 L 297.64 892.92 Z" fill-opacity="1"/><path fill="rgb(247,201,23)" stroke="none" paint-order="stroke fill markers" d=" M 297.64 0 L 297.64 99.21333333333332 L 396.8533333333333 99.21333333333332 Z" fill-opacity="1"/><path fill="rgb(230,49,90)" stroke="none" paint-order="stroke fill markers" d=" M 297.64 0 L 396.8533333333333 0 L 396.8533333333333 99.21333333333332 Z" fill-opacity="1"/><path fill="rgb(118,193,213)" stroke="none" paint-order="stroke fill markers" d=" M 297.64 99.21333333333332 L 297.64 198.42666666666665 L 396.8533333333333 198.42666666666665 Z" fill-opacity="1"/><path fill="rgb(247,201,23)" stroke="none" paint-order="stroke fill markers" d=" M 297.64 99.21333333333332 L 396.8533333333333 99.21333333333332 L 396.8533333333333 198.42666666666665 Z" fill-opacity="1"/><path fill="rgb(230,49,90)" stroke="none" paint-order="stroke fill markers" d=" M 297.64 198.42666666666665 L 297.64 297.64 L 396.8533333333333 297.64 Z" fill-opacity="1"/><path fill="rgb(247,201,23)" stroke="none" paint-order="stroke fill markers" d=" M 297.64 198.42666666666665 L 396.8533333333333 198.42666666666665 L 396.8533333333333 297.64 Z" fill-opacity="1"/><path fill="rgb(230,49,90)" stroke="none" paint-order="stroke fill markers" d=" M 297.64 297.64 L 297.64 396.8533333333333 L 396.8533333333333 396.8533333333333 Z" fill-opacity="1"/><path fill="rgb(118,193,213)" stroke="none" paint-order="stroke fill markers" d=" M 297.64 297.64 L 396.8533333333333 297.64 L 396.8533333333333 396.8533333333333 Z" fill-opacity="1"/><path fill="rgb(247,201,23)" stroke="none" paint-order="stroke fill markers" d=" M 297.64 396.8533333333333 L 297.64 496.0666666666666 L 396.8533333333333 496.0666666666666 Z" fill-opacity="1"/><path fill="rgb(247,201,23)" stroke="none" paint-order="stroke fill markers" d=" M 297.64 396.8533333333333 L 396.8533333333333 396.8533333333333 L 396.8533333333333 496.0666666666666 Z" fill-opacity="1"/><path fill="rgb(230,49,90)" stroke="none" paint-order="stroke fill markers" d=" M 297.64 496.0666666666666 L 297.64 595.28 L 396.8533333333333 595.28 Z" fill-opacity="1"/><path fill="rgb(247,201,23)" stroke="none" paint-order="stroke fill markers" d=" M 297.64 496.0666666666666 L 396.8533333333333 496.0666666666666 L 396.8533333333333 595.28 Z" fill-opacity="1"/><path fill="rgb(247,201,23)" stroke="none" paint-order="stroke fill markers" d=" M 297.64 595.28 L 297.64 694.4933333333333 L 396.8533333333333 694.4933333333333 Z" fill-opacity="1"/><path fill="rgb(118,193,213)" stroke="none" paint-order="stroke fill markers" d=" M 297.64 595.28 L 396.8533333333333 595.28 L 396.8533333333333 694.4933333333333 Z" fill-opacity="1"/><path fill="rgb(230,49,90)" stroke="none" paint-order="stroke fill markers" d=" M 297.64 694.4933333333332 L 297.64 793.7066666666666 L 396.8533333333333 793.7066666666666 Z" fill-opacity="1"/><path fill="rgb(118,193,213)" stroke="none" paint-order="stroke fill markers" d=" M 297.64 694.4933333333332 L 396.8533333333333 694.4933333333332 L 396.8533333333333 793.7066666666666 Z" fill-opacity="1"/><path fill="rgb(118,193,213)" stroke="none" paint-order="stroke fill markers" d=" M 297.64 793.7066666666666 L 297.64 892.92 L 396.8533333333333 892.92 Z" fill-opacity="1"/><path fill="rgb(230,49,90)" stroke="none" paint-order="stroke fill markers" d=" M 297.64 793.7066666666666 L 396.8533333333333 793.7066666666666 L 396.8533333333333 892.92 Z" fill-opacity="1"/><path fill="rgb(118,193,213)" stroke="none" paint-order="stroke fill markers" d=" M 396.8533333333333 0 L 396.8533333333333 99.21333333333332 L 496.0666666666666 99.21333333333332 Z" fill-opacity="1"/><path fill="rgb(230,49,90)" stroke="none" paint-order="stroke fill markers" d=" M 396.8533333333333 0 L 496.0666666666666 0 L 496.0666666666666 99.21333333333332 Z" fill-opacity="1"/><path fill="rgb(247,201,23)" stroke="none" paint-order="stroke fill markers" d=" M 396.8533333333333 99.21333333333332 L 396.8533333333333 198.42666666666665 L 496.0666666666666 198.42666666666665 Z" fill-opacity="1"/><path fill="rgb(230,49,90)" stroke="none" paint-order="stroke fill markers" d=" M 396.8533333333333 99.21333333333332 L 496.0666666666666 99.21333333333332 L 496.0666666666666 198.42666666666665 Z" fill-opacity="1"/><path fill="rgb(118,193,213)" stroke="none" paint-order="stroke fill markers" d=" M 396.8533333333333 198.42666666666665 L 396.8533333333333 297.64 L 496.0666666666666 297.64 Z" fill-opacity="1"/><path fill="rgb(247,201,23)" stroke="none" paint-order="stroke fill markers" d=" M 396.8533333333333 198.42666666666665 L 496.0666666666666 198.42666666666665 L 496.0666666666666 297.64 Z" fill-opacity="1"/><path fill="rgb(230,49,90)" stroke="none" paint-order="stroke fill markers" d=" M 396.8533333333333 297.64 L 396.8533333333333 396.8533333333333 L 496.0666666666666 396.8533333333333 Z" fill-opacity="1"/><path fill="rgb(230,49,90)" stroke="none" paint-order="stroke fill markers" d=" M 396.8533333333333 297.64 L 496.0666666666666 297.64 L 496.0666666666666 396.8533333333333 Z" fill-opacity="1"/><path fill="rgb(247,201,23)" stroke="none" paint-order="stroke fill markers" d=" M 396.8533333333333 396.8533333333333 L 396.8533333333333 496.0666666666666 L 496.0666666666666 496.0666666666666 Z" fill-opacity="1"/><path fill="rgb(118,193,213)" stroke="none" paint-order="stroke fill markers" d=" M 396.8533333333333 396.8533333333333 L 496.0666666666666 396.8533333333333 L 496.0666666666666 496.0666666666666 Z" fill-opacity="1"/><path fill="rgb(247,201,23)" stroke="none" paint-order="stroke fill markers" d=" M 396.8533333333333 496.0666666666666 L 396.8533333333333 595.28 L 496.0666666666666 595.28 Z" fill-opacity="1"/><path fill="rgb(118,193,213)" stroke="none" paint-order="stroke fill markers" d=" M 396.8533333333333 496.0666666666666 L 496.0666666666666 496.0666666666666 L 496.0666666666666 595.28 Z" fill-opacity="1"/><path fill="rgb(230,49,90)" stroke="none" paint-order="stroke fill markers" d=" M 396.8533333333333 595.28 L 396.8533333333333 694.4933333333333 L 496.0666666666666 694.4933333333333 Z" fill-opacity="1"/><path fill="rgb(118,193,213)" stroke="none" paint-order="stroke fill markers" d=" M 396.8533333333333 595.28 L 496.0666666666666 595.28 L 496.0666666666666 694.4933333333333 Z" fill-opacity="1"/><path fill="rgb(247,201,23)" stroke="none" paint-order="stroke fill markers" d=" M 396.8533333333333 694.4933333333332 L 396.8533333333333 793.7066666666666 L 496.0666666666666 793.7066666666666 Z" fill-opacity="1"/><path fill="rgb(230,49,90)" stroke="none" paint-order="stroke fill markers" d=" M 396.8533333333333 694.4933333333332 L 496.0666666666666 694.4933333333332 L 496.0666666666666 793.7066666666666 Z" fill-opacity="1"/><path fill="rgb(247,201,23)" stroke="none" paint-order="stroke fill markers" d=" M 396.8533333333333 793.7066666666666 L 396.8533333333333 892.92 L 496.0666666666666 892.92 Z" fill-opacity="1"/><path fill="rgb(118,193,213)" stroke="none" paint-order="stroke fill markers" d=" M 396.8533333333333 793.7066666666666 L 496.0666666666666 793.7066666666666 L 496.0666666666666 892.92 Z" fill-opacity="1"/><path fill="rgb(247,201,23)" stroke="none" paint-order="stroke fill markers" d=" M 496.0666666666666 0 L 496.0666666666666 99.21333333333332 L 595.28 99.21333333333332 Z" fill-opacity="1"/><path fill="rgb(247,201,23)" stroke="none" paint-order="stroke fill markers" d=" M 496.0666666666666 0 L 595.28 0 L 595.28 99.21333333333332 Z" fill-opacity="1"/><path fill="rgb(118,193,213)" stroke="none" paint-order="stroke fill markers" d=" M 496.0666666666666 99.21333333333332 L 496.0666666666666 198.42666666666665 L 595.28 198.42666666666665 Z" fill-opacity="1"/><path fill="rgb(230,49,90)" stroke="none" paint-order="stroke fill markers" d=" M 496.0666666666666 99.21333333333332 L 595.28 99.21333333333332 L 595.28 198.42666666666665 Z" fill-opacity="1"/><path fill="rgb(230,49,90)" stroke="none" paint-order="stroke fill markers" d=" M 496.0666666666666 198.42666666666665 L 496.0666666666666 297.64 L 595.28 297.64 Z" fill-opacity="1"/><path fill="rgb(247,201,23)" stroke="none" paint-order="stroke fill markers" d=" M 496.0666666666666 198.42666666666665 L 595.28 198.42666666666665 L 595.28 297.64 Z" fill-opacity="1"/><path fill="rgb(118,193,213)" stroke="none" paint-order="stroke fill markers" d=" M 496.0666666666666 297.64 L 496.0666666666666 396.8533333333333 L 595.28 396.8533333333333 Z" fill-opacity="1"/><path fill="rgb(118,193,213)" stroke="none" paint-order="stroke fill markers" d=" M 496.0666666666666 297.64 L 595.28 297.64 L 595.28 396.8533333333333 Z" fill-opacity="1"/><path fill="rgb(247,201,23)" stroke="none" paint-order="stroke fill markers" d=" M 496.0666666666666 396.8533333333333 L 496.0666666666666 496.0666666666666 L 595.28 496.0666666666666 Z" fill-opacity="1"/><path fill="rgb(118,193,213)" stroke="none" paint-order="stroke fill markers" d=" M 496.0666666666666 396.8533333333333 L 595.28 396.8533333333333 L 595.28 496.0666666666666 Z" fill-opacity="1"/><path fill="rgb(118,193,213)" stroke="none" paint-order="stroke fill markers" d=" M 496.0666666666666 496.0666666666666 L 496.0666666666666 595.28 L 595.28 595.28 Z" fill-opacity="1"/><path fill="rgb(230,49,90)" stroke="none" paint-order="stroke fill markers" d=" M 496.0666666666666 496.0666666666666 L 595.28 496.0666666666666 L 595.28 595.28 Z" fill-opacity="1"/><path fill="rgb(230,49,90)" stroke="none" paint-order="stroke fill markers" d=" M 496.0666666666666 595.28 L 496.0666666666666 694.4933333333333 L 595.28 694.4933333333333 Z" fill-opacity="1"/><path fill="rgb(230,49,90)" stroke="none" paint-order="stroke fill markers" d=" M 496.0666666666666 595.28 L 595.28 595.28 L 595.28 694.4933333333333 Z" fill-opacity="1"/><path fill="rgb(230,49,90)" stroke="none" paint-order="stroke fill markers" d=" M 496.0666666666666 694.4933333333332 L 496.0666666666666 793.7066666666666 L 595.28 793.7066666666666 Z" fill-opacity="1"/><path fill="rgb(230,49,90)" stroke="none" paint-order="stroke fill markers" d=" M 496.0666666666666 694.4933333333332 L 595.28 694.4933333333332 L 595.28 793.7066666666666 Z" fill-opacity="1"/><path fill="rgb(247,201,23)" stroke="none" paint-order="stroke fill markers" d=" M 496.0666666666666 793.7066666666666 L 496.0666666666666 892.92 L 595.28 892.92 Z" fill-opacity="1"/><path fill="rgb(230,49,90)" stroke="none" paint-order="stroke fill markers" d=" M 496.0666666666666 793.7066666666666 L 595.28 793.7066666666666 L 595.28 892.92 Z" fill-opacity="1"/><g transform="scale(1,1)"><path fill="rgb(247,201,23)" stroke="none" paint-order="stroke fill markers" d=" M 0 0 L 0 99.21333333333332 L 99.21333333333332 99.21333333333332 Z" fill-opacity="1"/><path fill="rgb(247,201,23)" stroke="none" paint-order="stroke fill markers" d=" M 0 0 L 99.21333333333332 0 L 99.21333333333332 99.21333333333332 Z" fill-opacity="1"/><path fill="rgb(247,201,23)" stroke="none" paint-order="stroke fill markers" d=" M 0 99.21333333333332 L 0 198.42666666666665 L 99.21333333333332 198.42666666666665 Z" fill-opacity="1"/><path fill="rgb(230,49,90)" stroke="none" paint-order="stroke fill markers" d=" M 0 99.21333333333332 L 99.21333333333332 99.21333333333332 L 99.21333333333332 198.42666666666665 Z" fill-opacity="1"/><path fill="rgb(230,49,90)" stroke="none" paint-order="stroke fill markers" d=" M 0 198.42666666666665 L 0 297.64 L 99.21333333333332 297.64 Z" fill-opacity="1"/><path fill="rgb(118,193,213)" stroke="none" paint-order="stroke fill markers" d=" M 0 198.42666666666665 L 99.21333333333332 198.42666666666665 L 99.21333333333332 297.64 Z" fill-opacity="1"/><path fill="rgb(230,49,90)" stroke="none" paint-order="stroke fill markers" d=" M 0 297.64 L 0 396.8533333333333 L 99.21333333333332 396.8533333333333 Z" fill-opacity="1"/><path fill="rgb(247,201,23)" stroke="none" paint-order="stroke fill markers" d=" M 0 297.64 L 99.21333333333332 297.64 L 99.21333333333332 396.8533333333333 Z" fill-opacity="1"/><path fill="rgb(118,193,213)" stroke="none" paint-order="stroke fill markers" d=" M 0 396.8533333333333 L 0 496.0666666666666 L 99.21333333333332 496.0666666666666 Z" fill-opacity="1"/><path fill="rgb(230,49,90)" stroke="none" paint-order="stroke fill markers" d=" M 0 396.8533333333333 L 99.21333333333332 396.8533333333333 L 99.21333333333332 496.0666666666666 Z" fill-opacity="1"/><path fill="rgb(118,193,213)" stroke="none" paint-order="stroke fill markers" d=" M 0 496.0666666666666 L 0 595.28 L 99.21333333333332 595.28 Z" fill-opacity="1"/><path fill="rgb(230,49,90)" stroke="none" paint-order="stroke fill markers" d=" M 0 496.0666666666666 L 99.21333333333332 496.0666666666666 L 99.21333333333332 595.28 Z" fill-opacity="1"/><path fill="rgb(230,49,90)" stroke="none" paint-order="stroke fill markers" d=" M 0 595.28 L 0 694.4933333333333 L 99.21333333333332 694.4933333333333 Z" fill-opacity="1"/><path fill="rgb(118,193,213)" stroke="none" paint-order="stroke fill markers" d=" M 0 595.28 L 99.21333333333332 595.28 L 99.21333333333332 694.4933333333333 Z" fill-opacity="1"/><path fill="rgb(118,193,213)" stroke="none" paint-order="stroke fill markers" d=" M 0 694.4933333333332 L 0 793.7066666666666 L 99.21333333333332 793.7066666666666 Z" fill-opacity="1"/><path fill="rgb(118,193,213)" stroke="none" paint-order="stroke fill markers" d=" M 0 694.4933333333332 L 99.21333333333332 694.4933333333332 L 99.21333333333332 793.7066666666666 Z" fill-opacity="1"/><path fill="rgb(230,49,90)" stroke="none" paint-order="stroke fill markers" d=" M 0 793.7066666666666 L 0 892.92 L 99.21333333333332 892.92 Z" fill-opacity="1"/><path fill="rgb(118,193,213)" stroke="none" paint-order="stroke fill markers" d=" M 0 793.7066666666666 L 99.21333333333332 793.7066666666666 L 99.21333333333332 892.92 Z" fill-opacity="1"/><path fill="rgb(247,201,23)" stroke="none" paint-order="stroke fill markers" d=" M 99.21333333333332 0 L 99.21333333333332 99.21333333333332 L 198.42666666666665 99.21333333333332 Z" fill-opacity="1"/><path fill="rgb(118,193,213)" stroke="none" paint-order="stroke fill markers" d=" M 99.21333333333332 0 L 198.42666666666665 0 L 198.42666666666665 99.21333333333332 Z" fill-opacity="1"/><path fill="rgb(247,201,23)" stroke="none" paint-order="stroke fill markers" d=" M 99.21333333333332 99.21333333333332 L 99.21333333333332 198.42666666666665 L 198.42666666666665 198.42666666666665 Z" fill-opacity="1"/><path fill="rgb(230,49,90)" stroke="none" paint-order="stroke fill markers" d=" M 99.21333333333332 99.21333333333332 L 198.42666666666665 99.21333333333332 L 198.42666666666665 198.42666666666665 Z" fill-opacity="1"/><path fill="rgb(118,193,213)" stroke="none" paint-order="stroke fill markers" d=" M 99.21333333333332 198.42666666666665 L 99.21333333333332 297.64 L 198.42666666666665 297.64 Z" fill-opacity="1"/><path fill="rgb(230,49,90)" stroke="none" paint-order="stroke fill markers" d=" M 99.21333333333332 198.42666666666665 L 198.42666666666665 198.42666666666665 L 198.42666666666665 297.64 Z" fill-opacity="1"/><path fill="rgb(247,201,23)" stroke="none" paint-order="stroke fill markers" d=" M 99.21333333333332 297.64 L 99.21333333333332 396.8533333333333 L 198.42666666666665 396.8533333333333 Z" fill-opacity="1"/><path fill="rgb(230,49,90)" stroke="none" paint-order="stroke fill markers" d=" M 99.21333333333332 297.64 L 198.42666666666665 297.64 L 198.42666666666665 396.8533333333333 Z" fill-opacity="1"/><path fill="rgb(230,49,90)" stroke="none" paint-order="stroke fill markers" d=" M 99.21333333333332 396.8533333333333 L 99.21333333333332 496.0666666666666 L 198.42666666666665 496.0666666666666 Z" fill-opacity="1"/><path fill="rgb(247,201,23)" stroke="none" paint-order="stroke fill markers" d=" M 99.21333333333332 396.8533333333333 L 198.42666666666665 396.8533333333333 L 198.42666666666665 496.0666666666666 Z" fill-opacity="1"/><path fill="rgb(247,201,23)" stroke="none" paint-order="stroke fill markers" d=" M 99.21333333333332 496.0666666666666 L 99.21333333333332 595.28 L 198.42666666666665 595.28 Z" fill-opacity="1"/><path fill="rgb(230,49,90)" stroke="none" paint-order="stroke fill markers" d=" M 99.21333333333332 496.0666666666666 L 198.42666666666665 496.0666666666666 L 198.42666666666665 595.28 Z" fill-opacity="1"/><path fill="rgb(118,193,213)" stroke="none" paint-order="stroke fill markers" d=" M 99.21333333333332 595.28 L 99.21333333333332 694.4933333333333 L 198.42666666666665 694.4933333333333 Z" fill-opacity="1"/><path fill="rgb(230,49,90)" stroke="none" paint-order="stroke fill markers" d=" M 99.21333333333332 595.28 L 198.42666666666665 595.28 L 198.42666666666665 694.4933333333333 Z" fill-opacity="1"/><path fill="rgb(118,193,213)" stroke="none" paint-order="stroke fill markers" d=" M 99.21333333333332 694.4933333333332 L 99.21333333333332 793.7066666666666 L 198.42666666666665 793.7066666666666 Z" fill-opacity="1"/><path fill="rgb(118,193,213)" stroke="none" paint-order="stroke fill markers" d=" M 99.21333333333332 694.4933333333332 L 198.42666666666665 694.4933333333332 L 198.42666666666665 793.7066666666666 Z" fill-opacity="1"/><path fill="rgb(118,193,213)" stroke="none" paint-order="stroke fill markers" d=" M 99.21333333333332 793.7066666666666 L 99.21333333333332 892.92 L 198.42666666666665 892.92 Z" fill-opacity="1"/><path fill="rgb(247,201,23)" stroke="none" paint-order="stroke fill markers" d=" M 99.21333333333332 793.7066666666666 L 198.42666666666665 793.7066666666666 L 198.42666666666665 892.92 Z" fill-opacity="1"/><path fill="rgb(118,193,213)" stroke="none" paint-order="stroke fill markers" d=" M 198.42666666666665 0 L 198.42666666666665 99.21333333333332 L 297.64 99.21333333333332 Z" fill-opacity="1"/><path fill="rgb(247,201,23)" stroke="none" paint-order="stroke fill markers" d=" M 198.42666666666665 0 L 297.64 0 L 297.64 99.21333333333332 Z" fill-opacity="1"/><path fill="rgb(230,49,90)" stroke="none" paint-order="stroke fill markers" d=" M 198.42666666666665 99.21333333333332 L 198.42666666666665 198.42666666666665 L 297.64 198.42666666666665 Z" fill-opacity="1"/><path fill="rgb(230,49,90)" stroke="none" paint-order="stroke fill markers" d=" M 198.42666666666665 99.21333333333332 L 297.64 99.21333333333332 L 297.64 198.42666666666665 Z" fill-opacity="1"/><path fill="rgb(247,201,23)" stroke="none" paint-order="stroke fill markers" d=" M 198.42666666666665 198.42666666666665 L 198.42666666666665 297.64 L 297.64 297.64 Z" fill-opacity="1"/><path fill="rgb(247,201,23)" stroke="none" paint-order="stroke fill markers" d=" M 198.42666666666665 198.42666666666665 L 297.64 198.42666666666665 L 297.64 297.64 Z" fill-opacity="1"/><path fill="rgb(230,49,90)" stroke="none" paint-order="stroke fill markers" d=" M 198.42666666666665 297.64 L 198.42666666666665 396.8533333333333 L 297.64 396.8533333333333 Z" fill-opacity="1"/><path fill="rgb(230,49,90)" stroke="none" paint-order="stroke fill markers" d=" M 198.42666666666665 297.64 L 297.64 297.64 L 297.64 396.8533333333333 Z" fill-opacity="1"/><path fill="rgb(247,201,23)" stroke="none" paint-order="stroke fill markers" d=" M 198.42666666666665 396.8533333333333 L 198.42666666666665 496.0666666666666 L 297.64 496.0666666666666 Z" fill-opacity="1"/><path fill="rgb(118,193,213)" stroke="none" paint-order="stroke fill markers" d=" M 198.42666666666665 396.8533333333333 L 297.64 396.8533333333333 L 297.64 496.0666666666666 Z" fill-opacity="1"/><path fill="rgb(118,193,213)" stroke="none" paint-order="stroke fill markers" d=" M 198.42666666666665 496.0666666666666 L 198.42666666666665 595.28 L 297.64 595.28 Z" fill-opacity="1"/><path fill="rgb(230,49,90)" stroke="none" paint-order="stroke fill markers" d=" M 198.42666666666665 496.0666666666666 L 297.64 496.0666666666666 L 297.64 595.28 Z" fill-opacity="1"/><path fill="rgb(118,193,213)" stroke="none" paint-order="stroke fill markers" d=" M 198.42666666666665 595.28 L 198.42666666666665 694.4933333333333 L 297.64 694.4933333333333 Z" fill-opacity="1"/><path fill="rgb(230,49,90)" stroke="none" paint-order="stroke fill markers" d=" M 198.42666666666665 595.28 L 297.64 595.28 L 297.64 694.4933333333333 Z" fill-opacity="1"/><path fill="rgb(118,193,213)" stroke="none" paint-order="stroke fill markers" d=" M 198.42666666666665 694.4933333333332 L 198.42666666666665 793.7066666666666 L 297.64 793.7066666666666 Z" fill-opacity="1"/><path fill="rgb(247,201,23)" stroke="none" paint-order="stroke fill markers" d=" M 198.42666666666665 694.4933333333332 L 297.64 694.4933333333332 L 297.64 793.7066666666666 Z" fill-opacity="1"/><path fill="rgb(230,49,90)" stroke="none" paint-order="stroke fill markers" d=" M 198.42666666666665 793.7066666666666 L 198.42666666666665 892.92 L 297.64 892.92 Z" fill-opacity="1"/><path fill="rgb(247,201,23)" stroke="none" paint-order="stroke fill markers" d=" M 198.42666666666665 793.7066666666666 L 297.64 793.7066666666666 L 297.64 892.92 Z" fill-opacity="1"/><path fill="rgb(247,201,23)" stroke="none" paint-order="stroke fill markers" d=" M 297.64 0 L 297.64 99.21333333333332 L 396.8533333333333 99.21333333333332 Z" fill-opacity="1"/><path fill="rgb(118,193,213)" stroke="none" paint-order="stroke fill markers" d=" M 297.64 0 L 396.8533333333333 0 L 396.8533333333333 99.21333333333332 Z" fill-opacity="1"/><path fill="rgb(118,193,213)" stroke="none" paint-order="stroke fill markers" d=" M 297.64 99.21333333333332 L 297.64 198.42666666666665 L 396.8533333333333 198.42666666666665 Z" fill-opacity="1"/><path fill="rgb(118,193,213)" stroke="none" paint-order="stroke fill markers" d=" M 297.64 99.21333333333332 L 396.8533333333333 99.21333333333332 L 396.8533333333333 198.42666666666665 Z" fill-opacity="1"/><path fill="rgb(247,201,23)" stroke="none" paint-order="stroke fill markers" d=" M 297.64 198.42666666666665 L 297.64 297.64 L 396.8533333333333 297.64 Z" fill-opacity="1"/><path fill="rgb(247,201,23)" stroke="none" paint-order="stroke fill markers" d=" M 297.64 198.42666666666665 L 396.8533333333333 198.42666666666665 L 396.8533333333333 297.64 Z" fill-opacity="1"/><path fill="rgb(247,201,23)" stroke="none" paint-order="stroke fill markers" d=" M 297.64 297.64 L 297.64 396.8533333333333 L 396.8533333333333 396.8533333333333 Z" fill-opacity="1"/><path fill="rgb(230,49,90)" stroke="none" paint-order="stroke fill markers" d=" M 297.64 297.64 L 396.8533333333333 297.64 L 396.8533333333333 396.8533333333333 Z" fill-opacity="1"/><path fill="rgb(230,49,90)" stroke="none" paint-order="stroke fill markers" d=" M 297.64 396.8533333333333 L 297.64 496.0666666666666 L 396.8533333333333 496.0666666666666 Z" fill-opacity="1"/><path fill="rgb(247,201,23)" stroke="none" paint-order="stroke fill markers" d=" M 297.64 396.8533333333333 L 396.8533333333333 396.8533333333333 L 396.8533333333333 496.0666666666666 Z" fill-opacity="1"/><path fill="rgb(247,201,23)" stroke="none" paint-order="stroke fill markers" d=" M 297.64 496.0666666666666 L 297.64 595.28 L 396.8533333333333 595.28 Z" fill-opacity="1"/><path fill="rgb(247,201,23)" stroke="none" paint-order="stroke fill markers" d=" M 297.64 496.0666666666666 L 396.8533333333333 496.0666666666666 L 396.8533333333333 595.28 Z" fill-opacity="1"/><path fill="rgb(118,193,213)" stroke="none" paint-order="stroke fill markers" d=" M 297.64 595.28 L 297.64 694.4933333333333 L 396.8533333333333 694.4933333333333 Z" fill-opacity="1"/><path fill="rgb(230,49,90)" stroke="none" paint-order="stroke fill markers" d=" M 297.64 595.28 L 396.8533333333333 595.28 L 396.8533333333333 694.4933333333333 Z" fill-opacity="1"/><path fill="rgb(247,201,23)" stroke="none" paint-order="stroke fill markers" d=" M 297.64 694.4933333333332 L 297.64 793.7066666666666 L 396.8533333333333 793.7066666666666 Z" fill-opacity="1"/><path fill="rgb(118,193,213)" stroke="none" paint-order="stroke fill markers" d=" M 297.64 694.4933333333332 L 396.8533333333333 694.4933333333332 L 396.8533333333333 793.7066666666666 Z" fill-opacity="1"/><path fill="rgb(118,193,213)" stroke="none" paint-order="stroke fill markers" d=" M 297.64 793.7066666666666 L 297.64 892.92 L 396.8533333333333 892.92 Z" fill-opacity="1"/><path fill="rgb(230,49,90)" stroke="none" paint-order="stroke fill markers" d=" M 297.64 793.7066666666666 L 396.8533333333333 793.7066666666666 L 396.8533333333333 892.92 Z" fill-opacity="1"/><path fill="rgb(247,201,23)" stroke="none" paint-order="stroke fill markers" d=" M 396.8533333333333 0 L 396.8533333333333 99.21333333333332 L 496.0666666666666 99.21333333333332 Z" fill-opacity="1"/><path fill="rgb(230,49,90)" stroke="none" paint-order="stroke fill markers" d=" M 396.8533333333333 0 L 496.0666666666666 0 L 496.0666666666666 99.21333333333332 Z" fill-opacity="1"/><path fill="rgb(247,201,23)" stroke="none" paint-order="stroke fill markers" d=" M 396.8533333333333 99.21333333333332 L 396.8533333333333 198.42666666666665 L 496.0666666666666 198.42666666666665 Z" fill-opacity="1"/><path fill="rgb(230,49,90)" stroke="none" paint-order="stroke fill markers" d=" M 396.8533333333333 99.21333333333332 L 496.0666666666666 99.21333333333332 L 496.0666666666666 198.42666666666665 Z" fill-opacity="1"/><path fill="rgb(247,201,23)" stroke="none" paint-order="stroke fill markers" d=" M 396.8533333333333 198.42666666666665 L 396.8533333333333 297.64 L 496.0666666666666 297.64 Z" fill-opacity="1"/><path fill="rgb(247,201,23)" stroke="none" paint-order="stroke fill markers" d=" M 396.8533333333333 198.42666666666665 L 496.0666666666666 198.42666666666665 L 496.0666666666666 297.64 Z" fill-opacity="1"/><path fill="rgb(118,193,213)" stroke="none" paint-order="stroke fill markers" d=" M 396.8533333333333 297.64 L 396.8533333333333 396.8533333333333 L 496.0666666666666 396.8533333333333 Z" fill-opacity="1"/><path fill="rgb(118,193,213)" stroke="none" paint-order="stroke fill markers" d=" M 396.8533333333333 297.64 L 496.0666666666666 297.64 L 496.0666666666666 396.8533333333333 Z" fill-opacity="1"/><path fill="rgb(118,193,213)" stroke="none" paint-order="stroke fill markers" d=" M 396.8533333333333 396.8533333333333 L 396.8533333333333 496.0666666666666 L 496.0666666666666 496.0666666666666 Z" fill-opacity="1"/><path fill="rgb(230,49,90)" stroke="none" paint-order="stroke fill markers" d=" M 396.8533333333333 396.8533333333333 L 496.0666666666666 396.8533333333333 L 496.0666666666666 496.0666666666666 Z" fill-opacity="1"/><path fill="rgb(118,193,213)" stroke="none" paint-order="stroke fill markers" d=" M 396.8533333333333 496.0666666666666 L 396.8533333333333 595.28 L 496.0666666666666 595.28 Z" fill-opacity="1"/><path fill="rgb(230,49,90)" stroke="none" paint-order="stroke fill markers" d=" M 396.8533333333333 496.0666666666666 L 496.0666666666666 496.0666666666666 L 496.0666666666666 595.28 Z" fill-opacity="1"/><path fill="rgb(118,193,213)" stroke="none" paint-order="stroke fill markers" d=" M 396.8533333333333 595.28 L 396.8533333333333 694.4933333333333 L 496.0666666666666 694.4933333333333 Z" fill-opacity="1"/><path fill="rgb(230,49,90)" stroke="none" paint-order="stroke fill markers" d=" M 396.8533333333333 595.28 L 496.0666666666666 595.28 L 496.0666666666666 694.4933333333333 Z" fill-opacity="1"/><path fill="rgb(247,201,23)" stroke="none" paint-order="stroke fill markers" d=" M 396.8533333333333 694.4933333333332 L 396.8533333333333 793.7066666666666 L 496.0666666666666 793.7066666666666 Z" fill-opacity="1"/><path fill="rgb(230,49,90)" stroke="none" paint-order="stroke fill markers" d=" M 396.8533333333333 694.4933333333332 L 496.0666666666666 694.4933333333332 L 496.0666666666666 793.7066666666666 Z" fill-opacity="1"/><path fill="rgb(247,201,23)" stroke="none" paint-order="stroke fill markers" d=" M 396.8533333333333 793.7066666666666 L 396.8533333333333 892.92 L 496.0666666666666 892.92 Z" fill-opacity="1"/><path fill="rgb(118,193,213)" stroke="none" paint-order="stroke fill markers" d=" M 396.8533333333333 793.7066666666666 L 496.0666666666666 793.7066666666666 L 496.0666666666666 892.92 Z" fill-opacity="1"/><path fill="rgb(118,193,213)" stroke="none" paint-order="stroke fill markers" d=" M 496.0666666666666 0 L 496.0666666666666 99.21333333333332 L 595.28 99.21333333333332 Z" fill-opacity="1"/><path fill="rgb(118,193,213)" stroke="none" paint-order="stroke fill markers" d=" M 496.0666666666666 0 L 595.28 0 L 595.28 99.21333333333332 Z" fill-opacity="1"/><path fill="rgb(118,193,213)" stroke="none" paint-order="stroke fill markers" d=" M 496.0666666666666 99.21333333333332 L 496.0666666666666 198.42666666666665 L 595.28 198.42666666666665 Z" fill-opacity="1"/><path fill="rgb(118,193,213)" stroke="none" paint-order="stroke fill markers" d=" M 496.0666666666666 99.21333333333332 L 595.28 99.21333333333332 L 595.28 198.42666666666665 Z" fill-opacity="1"/><path fill="rgb(118,193,213)" stroke="none" paint-order="stroke fill markers" d=" M 496.0666666666666 198.42666666666665 L 496.0666666666666 297.64 L 595.28 297.64 Z" fill-opacity="1"/><path fill="rgb(118,193,213)" stroke="none" paint-order="stroke fill markers" d=" M 496.0666666666666 198.42666666666665 L 595.28 198.42666666666665 L 595.28 297.64 Z" fill-opacity="1"/><path fill="rgb(118,193,213)" stroke="none" paint-order="stroke fill markers" d=" M 496.0666666666666 297.64 L 496.0666666666666 396.8533333333333 L 595.28 396.8533333333333 Z" fill-opacity="1"/><path fill="rgb(247,201,23)" stroke="none" paint-order="stroke fill markers" d=" M 496.0666666666666 297.64 L 595.28 297.64 L 595.28 396.8533333333333 Z" fill-opacity="1"/><path fill="rgb(247,201,23)" stroke="none" paint-order="stroke fill markers" d=" M 496.0666666666666 396.8533333333333 L 496.0666666666666 496.0666666666666 L 595.28 496.0666666666666 Z" fill-opacity="1"/><path fill="rgb(247,201,23)" stroke="none" paint-order="stroke fill markers" d=" M 496.0666666666666 396.8533333333333 L 595.28 396.8533333333333 L 595.28 496.0666666666666 Z" fill-opacity="1"/><path fill="rgb(230,49,90)" stroke="none" paint-order="stroke fill markers" d=" M 496.0666666666666 496.0666666666666 L 496.0666666666666 595.28 L 595.28 595.28 Z" fill-opacity="1"/><path fill="rgb(118,193,213)" stroke="none" paint-order="stroke fill markers" d=" M 496.0666666666666 496.0666666666666 L 595.28 496.0666666666666 L 595.28 595.28 Z" fill-opacity="1"/><path fill="rgb(230,49,90)" stroke="none" paint-order="stroke fill markers" d=" M 496.0666666666666 595.28 L 496.0666666666666 694.4933333333333 L 595.28 694.4933333333333 Z" fill-opacity="1"/><path fill="rgb(118,193,213)" stroke="none" paint-order="stroke fill markers" d=" M 496.0666666666666 595.28 L 595.28 595.28 L 595.28 694.4933333333333 Z" fill-opacity="1"/><path fill="rgb(247,201,23)" stroke="none" paint-order="stroke fill markers" d=" M 496.0666666666666 694.4933333333332 L 496.0666666666666 793.7066666666666 L 595.28 793.7066666666666 Z" fill-opacity="1"/><path fill="rgb(118,193,213)" stroke="none" paint-order="stroke fill markers" d=" M 496.0666666666666 694.4933333333332 L 595.28 694.4933333333332 L 595.28 793.7066666666666 Z" fill-opacity="1"/><path fill="rgb(230,49,90)" stroke="none" paint-order="stroke fill markers" d=" M 496.0666666666666 793.7066666666666 L 496.0666666666666 892.92 L 595.28 892.92 Z" fill-opacity="1"/><path fill="rgb(230,49,90)" stroke="none" paint-order="stroke fill markers" d=" M 496.0666666666666 793.7066666666666 L 595.28 793.7066666666666 L 595.28 892.92 Z" fill-opacity="1"/><g transform="scale(1,1)"><path fill="rgb(118,193,213)" stroke="none" paint-order="stroke fill markers" d=" M 0 0 L 0 99.21333333333332 L 99.21333333333332 99.21333333333332 Z" fill-opacity="1"/><path fill="rgb(247,201,23)" stroke="none" paint-order="stroke fill markers" d=" M 0 0 L 99.21333333333332 0 L 99.21333333333332 99.21333333333332 Z" fill-opacity="1"/><path fill="rgb(230,49,90)" stroke="none" paint-order="stroke fill markers" d=" M 0 99.21333333333332 L 0 198.42666666666665 L 99.21333333333332 198.42666666666665 Z" fill-opacity="1"/><path fill="rgb(247,201,23)" stroke="none" paint-order="stroke fill markers" d=" M 0 99.21333333333332 L 99.21333333333332 99.21333333333332 L 99.21333333333332 198.42666666666665 Z" fill-opacity="1"/><path fill="rgb(247,201,23)" stroke="none" paint-order="stroke fill markers" d=" M 0 198.42666666666665 L 0 297.64 L 99.21333333333332 297.64 Z" fill-opacity="1"/><path fill="rgb(247,201,23)" stroke="none" paint-order="stroke fill markers" d=" M 0 198.42666666666665 L 99.21333333333332 198.42666666666665 L 99.21333333333332 297.64 Z" fill-opacity="1"/><path fill="rgb(247,201,23)" stroke="none" paint-order="stroke fill markers" d=" M 0 297.64 L 0 396.8533333333333 L 99.21333333333332 396.8533333333333 Z" fill-opacity="1"/><path fill="rgb(247,201,23)" stroke="none" paint-order="stroke fill markers" d=" M 0 297.64 L 99.21333333333332 297.64 L 99.21333333333332 396.8533333333333 Z" fill-opacity="1"/><path fill="rgb(230,49,90)" stroke="none" paint-order="stroke fill markers" d=" M 0 396.8533333333333 L 0 496.0666666666666 L 99.21333333333332 496.0666666666666 Z" fill-opacity="1"/><path fill="rgb(118,193,213)" stroke="none" paint-order="stroke fill markers" d=" M 0 396.8533333333333 L 99.21333333333332 396.8533333333333 L 99.21333333333332 496.0666666666666 Z" fill-opacity="1"/><path fill="rgb(247,201,23)" stroke="none" paint-order="stroke fill markers" d=" M 0 496.0666666666666 L 0 595.28 L 99.21333333333332 595.28 Z" fill-opacity="1"/><path fill="rgb(230,49,90)" stroke="none" paint-order="stroke fill markers" d=" M 0 496.0666666666666 L 99.21333333333332 496.0666666666666 L 99.21333333333332 595.28 Z" fill-opacity="1"/><path fill="rgb(247,201,23)" stroke="none" paint-order="stroke fill markers" d=" M 0 595.28 L 0 694.4933333333333 L 99.21333333333332 694.4933333333333 Z" fill-opacity="1"/><path fill="rgb(247,201,23)" stroke="none" paint-order="stroke fill markers" d=" M 0 595.28 L 99.21333333333332 595.28 L 99.21333333333332 694.4933333333333 Z" fill-opacity="1"/><path fill="rgb(230,49,90)" stroke="none" paint-order="stroke fill markers" d=" M 0 694.4933333333332 L 0 793.7066666666666 L 99.21333333333332 793.7066666666666 Z" fill-opacity="1"/><path fill="rgb(247,201,23)" stroke="none" paint-order="stroke fill markers" d=" M 0 694.4933333333332 L 99.21333333333332 694.4933333333332 L 99.21333333333332 793.7066666666666 Z" fill-opacity="1"/><path fill="rgb(230,49,90)" stroke="none" paint-order="stroke fill markers" d=" M 0 793.7066666666666 L 0 892.92 L 99.21333333333332 892.92 Z" fill-opacity="1"/><path fill="rgb(230,49,90)" stroke="none" paint-order="stroke fill markers" d=" M 0 793.7066666666666 L 99.21333333333332 793.7066666666666 L 99.21333333333332 892.92 Z" fill-opacity="1"/><path fill="rgb(247,201,23)" stroke="none" paint-order="stroke fill markers" d=" M 99.21333333333332 0 L 99.21333333333332 99.21333333333332 L 198.42666666666665 99.21333333333332 Z" fill-opacity="1"/><path fill="rgb(230,49,90)" stroke="none" paint-order="stroke fill markers" d=" M 99.21333333333332 0 L 198.42666666666665 0 L 198.42666666666665 99.21333333333332 Z" fill-opacity="1"/><path fill="rgb(247,201,23)" stroke="none" paint-order="stroke fill markers" d=" M 99.21333333333332 99.21333333333332 L 99.21333333333332 198.42666666666665 L 198.42666666666665 198.42666666666665 Z" fill-opacity="1"/><path fill="rgb(247,201,23)" stroke="none" paint-order="stroke fill markers" d=" M 99.21333333333332 99.21333333333332 L 198.42666666666665 99.21333333333332 L 198.42666666666665 198.42666666666665 Z" fill-opacity="1"/><path fill="rgb(247,201,23)" stroke="none" paint-order="stroke fill markers" d=" M 99.21333333333332 198.42666666666665 L 99.21333333333332 297.64 L 198.42666666666665 297.64 Z" fill-opacity="1"/><path fill="rgb(230,49,90)" stroke="none" paint-order="stroke fill markers" d=" M 99.21333333333332 198.42666666666665 L 198.42666666666665 198.42666666666665 L 198.42666666666665 297.64 Z" fill-opacity="1"/><path fill="rgb(118,193,213)" stroke="none" paint-order="stroke fill markers" d=" M 99.21333333333332 297.64 L 99.21333333333332 396.8533333333333 L 198.42666666666665 396.8533333333333 Z" fill-opacity="1"/><path fill="rgb(230,49,90)" stroke="none" paint-order="stroke fill markers" d=" M 99.21333333333332 297.64 L 198.42666666666665 297.64 L 198.42666666666665 396.8533333333333 Z" fill-opacity="1"/><path fill="rgb(247,201,23)" stroke="none" paint-order="stroke fill markers" d=" M 99.21333333333332 396.8533333333333 L 99.21333333333332 496.0666666666666 L 198.42666666666665 496.0666666666666 Z" fill-opacity="1"/><path fill="rgb(118,193,213)" stroke="none" paint-order="stroke fill markers" d=" M 99.21333333333332 396.8533333333333 L 198.42666666666665 396.8533333333333 L 198.42666666666665 496.0666666666666 Z" fill-opacity="1"/><path fill="rgb(230,49,90)" stroke="none" paint-order="stroke fill markers" d=" M 99.21333333333332 496.0666666666666 L 99.21333333333332 595.28 L 198.42666666666665 595.28 Z" fill-opacity="1"/><path fill="rgb(118,193,213)" stroke="none" paint-order="stroke fill markers" d=" M 99.21333333333332 496.0666666666666 L 198.42666666666665 496.0666666666666 L 198.42666666666665 595.28 Z" fill-opacity="1"/><path fill="rgb(247,201,23)" stroke="none" paint-order="stroke fill markers" d=" M 99.21333333333332 595.28 L 99.21333333333332 694.4933333333333 L 198.42666666666665 694.4933333333333 Z" fill-opacity="1"/><path fill="rgb(230,49,90)" stroke="none" paint-order="stroke fill markers" d=" M 99.21333333333332 595.28 L 198.42666666666665 595.28 L 198.42666666666665 694.4933333333333 Z" fill-opacity="1"/><path fill="rgb(230,49,90)" stroke="none" paint-order="stroke fill markers" d=" M 99.21333333333332 694.4933333333332 L 99.21333333333332 793.7066666666666 L 198.42666666666665 793.7066666666666 Z" fill-opacity="1"/><path fill="rgb(247,201,23)" stroke="none" paint-order="stroke fill markers" d=" M 99.21333333333332 694.4933333333332 L 198.42666666666665 694.4933333333332 L 198.42666666666665 793.7066666666666 Z" fill-opacity="1"/><path fill="rgb(118,193,213)" stroke="none" paint-order="stroke fill markers" d=" M 99.21333333333332 793.7066666666666 L 99.21333333333332 892.92 L 198.42666666666665 892.92 Z" fill-opacity="1"/><path fill="rgb(118,193,213)" stroke="none" paint-order="stroke fill markers" d=" M 99.21333333333332 793.7066666666666 L 198.42666666666665 793.7066666666666 L 198.42666666666665 892.92 Z" fill-opacity="1"/><path fill="rgb(118,193,213)" stroke="none" paint-order="stroke fill markers" d=" M 198.42666666666665 0 L 198.42666666666665 99.21333333333332 L 297.64 99.21333333333332 Z" fill-opacity="1"/><path fill="rgb(118,193,213)" stroke="none" paint-order="stroke fill markers" d=" M 198.42666666666665 0 L 297.64 0 L 297.64 99.21333333333332 Z" fill-opacity="1"/><path fill="rgb(247,201,23)" stroke="none" paint-order="stroke fill markers" d=" M 198.42666666666665 99.21333333333332 L 198.42666666666665 198.42666666666665 L 297.64 198.42666666666665 Z" fill-opacity="1"/><path fill="rgb(247,201,23)" stroke="none" paint-order="stroke fill markers" d=" M 198.42666666666665 99.21333333333332 L 297.64 99.21333333333332 L 297.64 198.42666666666665 Z" fill-opacity="1"/><path fill="rgb(247,201,23)" stroke="none" paint-order="stroke fill markers" d=" M 198.42666666666665 198.42666666666665 L 198.42666666666665 297.64 L 297.64 297.64 Z" fill-opacity="1"/><path fill="rgb(118,193,213)" stroke="none" paint-order="stroke fill markers" d=" M 198.42666666666665 198.42666666666665 L 297.64 198.42666666666665 L 297.64 297.64 Z" fill-opacity="1"/><path fill="rgb(247,201,23)" stroke="none" paint-order="stroke fill markers" d=" M 198.42666666666665 297.64 L 198.42666666666665 396.8533333333333 L 297.64 396.8533333333333 Z" fill-opacity="1"/><path fill="rgb(230,49,90)" stroke="none" paint-order="stroke fill markers" d=" M 198.42666666666665 297.64 L 297.64 297.64 L 297.64 396.8533333333333 Z" fill-opacity="1"/><path fill="rgb(230,49,90)" stroke="none" paint-order="stroke fill markers" d=" M 198.42666666666665 396.8533333333333 L 198.42666666666665 496.0666666666666 L 297.64 496.0666666666666 Z" fill-opacity="1"/><path fill="rgb(230,49,90)" stroke="none" paint-order="stroke fill markers" d=" M 198.42666666666665 396.8533333333333 L 297.64 396.8533333333333 L 297.64 496.0666666666666 Z" fill-opacity="1"/><path fill="rgb(118,193,213)" stroke="none" paint-order="stroke fill markers" d=" M 198.42666666666665 496.0666666666666 L 198.42666666666665 595.28 L 297.64 595.28 Z" fill-opacity="1"/><path fill="rgb(230,49,90)" stroke="none" paint-order="stroke fill markers" d=" M 198.42666666666665 496.0666666666666 L 297.64 496.0666666666666 L 297.64 595.28 Z" fill-opacity="1"/><path fill="rgb(247,201,23)" stroke="none" paint-order="stroke fill markers" d=" M 198.42666666666665 595.28 L 198.42666666666665 694.4933333333333 L 297.64 694.4933333333333 Z" fill-opacity="1"/><path fill="rgb(118,193,213)" stroke="none" paint-order="stroke fill markers" d=" M 198.42666666666665 595.28 L 297.64 595.28 L 297.64 694.4933333333333 Z" fill-opacity="1"/><path fill="rgb(247,201,23)" stroke="none" paint-order="stroke fill markers" d=" M 198.42666666666665 694.4933333333332 L 198.42666666666665 793.7066666666666 L 297.64 793.7066666666666 Z" fill-opacity="1"/><path fill="rgb(118,193,213)" stroke="none" paint-order="stroke fill markers" d=" M 198.42666666666665 694.4933333333332 L 297.64 694.4933333333332 L 297.64 793.7066666666666 Z" fill-opacity="1"/><path fill="rgb(230,49,90)" stroke="none" paint-order="stroke fill markers" d=" M 198.42666666666665 793.7066666666666 L 198.42666666666665 892.92 L 297.64 892.92 Z" fill-opacity="1"/><path fill="rgb(118,193,213)" stroke="none" paint-order="stroke fill markers" d=" M 198.42666666666665 793.7066666666666 L 297.64 793.7066666666666 L 297.64 892.92 Z" fill-opacity="1"/><path fill="rgb(118,193,213)" stroke="none" paint-order="stroke fill markers" d=" M 297.64 0 L 297.64 99.21333333333332 L 396.8533333333333 99.21333333333332 Z" fill-opacity="1"/><path fill="rgb(230,49,90)" stroke="none" paint-order="stroke fill markers" d=" M 297.64 0 L 396.8533333333333 0 L 396.8533333333333 99.21333333333332 Z" fill-opacity="1"/><path fill="rgb(230,49,90)" stroke="none" paint-order="stroke fill markers" d=" M 297.64 99.21333333333332 L 297.64 198.42666666666665 L 396.8533333333333 198.42666666666665 Z" fill-opacity="1"/><path fill="rgb(230,49,90)" stroke="none" paint-order="stroke fill markers" d=" M 297.64 99.21333333333332 L 396.8533333333333 99.21333333333332 L 396.8533333333333 198.42666666666665 Z" fill-opacity="1"/><path fill="rgb(247,201,23)" stroke="none" paint-order="stroke fill markers" d=" M 297.64 198.42666666666665 L 297.64 297.64 L 396.8533333333333 297.64 Z" fill-opacity="1"/><path fill="rgb(230,49,90)" stroke="none" paint-order="stroke fill markers" d=" M 297.64 198.42666666666665 L 396.8533333333333 198.42666666666665 L 396.8533333333333 297.64 Z" fill-opacity="1"/><path fill="rgb(247,201,23)" stroke="none" paint-order="stroke fill markers" d=" M 297.64 297.64 L 297.64 396.8533333333333 L 396.8533333333333 396.8533333333333 Z" fill-opacity="1"/><path fill="rgb(230,49,90)" stroke="none" paint-order="stroke fill markers" d=" M 297.64 297.64 L 396.8533333333333 297.64 L 396.8533333333333 396.8533333333333 Z" fill-opacity="1"/><path fill="rgb(118,193,213)" stroke="none" paint-order="stroke fill markers" d=" M 297.64 396.8533333333333 L 297.64 496.0666666666666 L 396.8533333333333 496.0666666666666 Z" fill-opacity="1"/><path fill="rgb(247,201,23)" stroke="none" paint-order="stroke fill markers" d=" M 297.64 396.8533333333333 L 396.8533333333333 396.8533333333333 L 396.8533333333333 496.0666666666666 Z" fill-opacity="1"/><path fill="rgb(247,201,23)" stroke="none" paint-order="stroke fill markers" d=" M 297.64 496.0666666666666 L 297.64 595.28 L 396.8533333333333 595.28 Z" fill-opacity="1"/><path fill="rgb(118,193,213)" stroke="none" paint-order="stroke fill markers" d=" M 297.64 496.0666666666666 L 396.8533333333333 496.0666666666666 L 396.8533333333333 595.28 Z" fill-opacity="1"/><path fill="rgb(118,193,213)" stroke="none" paint-order="stroke fill markers" d=" M 297.64 595.28 L 297.64 694.4933333333333 L 396.8533333333333 694.4933333333333 Z" fill-opacity="1"/><path fill="rgb(247,201,23)" stroke="none" paint-order="stroke fill markers" d=" M 297.64 595.28 L 396.8533333333333 595.28 L 396.8533333333333 694.4933333333333 Z" fill-opacity="1"/><path fill="rgb(247,201,23)" stroke="none" paint-order="stroke fill markers" d=" M 297.64 694.4933333333332 L 297.64 793.7066666666666 L 396.8533333333333 793.7066666666666 Z" fill-opacity="1"/><path fill="rgb(118,193,213)" stroke="none" paint-order="stroke fill markers" d=" M 297.64 694.4933333333332 L 396.8533333333333 694.4933333333332 L 396.8533333333333 793.7066666666666 Z" fill-opacity="1"/><path fill="rgb(230,49,90)" stroke="none" paint-order="stroke fill markers" d=" M 297.64 793.7066666666666 L 297.64 892.92 L 396.8533333333333 892.92 Z" fill-opacity="1"/><path fill="rgb(247,201,23)" stroke="none" paint-order="stroke fill markers" d=" M 297.64 793.7066666666666 L 396.8533333333333 793.7066666666666 L 396.8533333333333 892.92 Z" fill-opacity="1"/><path fill="rgb(247,201,23)" stroke="none" paint-order="stroke fill markers" d=" M 396.8533333333333 0 L 396.8533333333333 99.21333333333332 L 496.0666666666666 99.21333333333332 Z" fill-opacity="1"/><path fill="rgb(118,193,213)" stroke="none" paint-order="stroke fill markers" d=" M 396.8533333333333 0 L 496.0666666666666 0 L 496.0666666666666 99.21333333333332 Z" fill-opacity="1"/><path fill="rgb(230,49,90)" stroke="none" paint-order="stroke fill markers" d=" M 396.8533333333333 99.21333333333332 L 396.8533333333333 198.42666666666665 L 496.0666666666666 198.42666666666665 Z" fill-opacity="1"/><path fill="rgb(230,49,90)" stroke="none" paint-order="stroke fill markers" d=" M 396.8533333333333 99.21333333333332 L 496.0666666666666 99.21333333333332 L 496.0666666666666 198.42666666666665 Z" fill-opacity="1"/><path fill="rgb(230,49,90)" stroke="none" paint-order="stroke fill markers" d=" M 396.8533333333333 198.42666666666665 L 396.8533333333333 297.64 L 496.0666666666666 297.64 Z" fill-opacity="1"/><path fill="rgb(230,49,90)" stroke="none" paint-order="stroke fill markers" d=" M 396.8533333333333 198.42666666666665 L 496.0666666666666 198.42666666666665 L 496.0666666666666 297.64 Z" fill-opacity="1"/><path fill="rgb(118,193,213)" stroke="none" paint-order="stroke fill markers" d=" M 396.8533333333333 297.64 L 396.8533333333333 396.8533333333333 L 496.0666666666666 396.8533333333333 Z" fill-opacity="1"/><path fill="rgb(230,49,90)" stroke="none" paint-order="stroke fill markers" d=" M 396.8533333333333 297.64 L 496.0666666666666 297.64 L 496.0666666666666 396.8533333333333 Z" fill-opacity="1"/><path fill="rgb(247,201,23)" stroke="none" paint-order="stroke fill markers" d=" M 396.8533333333333 396.8533333333333 L 396.8533333333333 496.0666666666666 L 496.0666666666666 496.0666666666666 Z" fill-opacity="1"/><path fill="rgb(230,49,90)" stroke="none" paint-order="stroke fill markers" d=" M 396.8533333333333 396.8533333333333 L 496.0666666666666 396.8533333333333 L 496.0666666666666 496.0666666666666 Z" fill-opacity="1"/><path fill="rgb(230,49,90)" stroke="none" paint-order="stroke fill markers" d=" M 396.8533333333333 496.0666666666666 L 396.8533333333333 595.28 L 496.0666666666666 595.28 Z" fill-opacity="1"/><path fill="rgb(230,49,90)" stroke="none" paint-order="stroke fill markers" d=" M 396.8533333333333 496.0666666666666 L 496.0666666666666 496.0666666666666 L 496.0666666666666 595.28 Z" fill-opacity="1"/><path fill="rgb(247,201,23)" stroke="none" paint-order="stroke fill markers" d=" M 396.8533333333333 595.28 L 396.8533333333333 694.4933333333333 L 496.0666666666666 694.4933333333333 Z" fill-opacity="1"/><path fill="rgb(118,193,213)" stroke="none" paint-order="stroke fill markers" d=" M 396.8533333333333 595.28 L 496.0666666666666 595.28 L 496.0666666666666 694.4933333333333 Z" fill-opacity="1"/><path fill="rgb(247,201,23)" stroke="none" paint-order="stroke fill markers" d=" M 396.8533333333333 694.4933333333332 L 396.8533333333333 793.7066666666666 L 496.0666666666666 793.7066666666666 Z" fill-opacity="1"/><path fill="rgb(230,49,90)" stroke="none" paint-order="stroke fill markers" d=" M 396.8533333333333 694.4933333333332 L 496.0666666666666 694.4933333333332 L 496.0666666666666 793.7066666666666 Z" fill-opacity="1"/><path fill="rgb(230,49,90)" stroke="none" paint-order="stroke fill markers" d=" M 396.8533333333333 793.7066666666666 L 396.8533333333333 892.92 L 496.0666666666666 892.92 Z" fill-opacity="1"/><path fill="rgb(118,193,213)" stroke="none" paint-order="stroke fill markers" d=" M 396.8533333333333 793.7066666666666 L 496.0666666666666 793.7066666666666 L 496.0666666666666 892.92 Z" fill-opacity="1"/><path fill="rgb(230,49,90)" stroke="none" paint-order="stroke fill markers" d=" M 496.0666666666666 0 L 496.0666666666666 99.21333333333332 L 595.28 99.21333333333332 Z" fill-opacity="1"/><path fill="rgb(118,193,213)" stroke="none" paint-order="stroke fill markers" d=" M 496.0666666666666 0 L 595.28 0 L 595.28 99.21333333333332 Z" fill-opacity="1"/><path fill="rgb(118,193,213)" stroke="none" paint-order="stroke fill markers" d=" M 496.0666666666666 99.21333333333332 L 496.0666666666666 198.42666666666665 L 595.28 198.42666666666665 Z" fill-opacity="1"/><path fill="rgb(247,201,23)" stroke="none" paint-order="stroke fill markers" d=" M 496.0666666666666 99.21333333333332 L 595.28 99.21333333333332 L 595.28 198.42666666666665 Z" fill-opacity="1"/><path fill="rgb(230,49,90)" stroke="none" paint-order="stroke fill markers" d=" M 496.0666666666666 198.42666666666665 L 496.0666666666666 297.64 L 595.28 297.64 Z" fill-opacity="1"/><path fill="rgb(118,193,213)" stroke="none" paint-order="stroke fill markers" d=" M 496.0666666666666 198.42666666666665 L 595.28 198.42666666666665 L 595.28 297.64 Z" fill-opacity="1"/><path fill="rgb(230,49,90)" stroke="none" paint-order="stroke fill markers" d=" M 496.0666666666666 297.64 L 496.0666666666666 396.8533333333333 L 595.28 396.8533333333333 Z" fill-opacity="1"/><path fill="rgb(118,193,213)" stroke="none" paint-order="stroke fill markers" d=" M 496.0666666666666 297.64 L 595.28 297.64 L 595.28 396.8533333333333 Z" fill-opacity="1"/><path fill="rgb(118,193,213)" stroke="none" paint-order="stroke fill markers" d=" M 496.0666666666666 396.8533333333333 L 496.0666666666666 496.0666666666666 L 595.28 496.0666666666666 Z" fill-opacity="1"/><path fill="rgb(118,193,213)" stroke="none" paint-order="stroke fill markers" d=" M 496.0666666666666 396.8533333333333 L 595.28 396.8533333333333 L 595.28 496.0666666666666 Z" fill-opacity="1"/><path fill="rgb(247,201,23)" stroke="none" paint-order="stroke fill markers" d=" M 496.0666666666666 496.0666666666666 L 496.0666666666666 595.28 L 595.28 595.28 Z" fill-opacity="1"/><path fill="rgb(230,49,90)" stroke="none" paint-order="stroke fill markers" d=" M 496.0666666666666 496.0666666666666 L 595.28 496.0666666666666 L 595.28 595.28 Z" fill-opacity="1"/><path fill="rgb(230,49,90)" stroke="none" paint-order="stroke fill markers" d=" M 496.0666666666666 595.28 L 496.0666666666666 694.4933333333333 L 595.28 694.4933333333333 Z" fill-opacity="1"/><path fill="rgb(230,49,90)" stroke="none" paint-order="stroke fill markers" d=" M 496.0666666666666 595.28 L 595.28 595.28 L 595.28 694.4933333333333 Z" fill-opacity="1"/><path fill="rgb(230,49,90)" stroke="none" paint-order="stroke fill markers" d=" M 496.0666666666666 694.4933333333332 L 496.0666666666666 793.7066666666666 L 595.28 793.7066666666666 Z" fill-opacity="1"/><path fill="rgb(247,201,23)" stroke="none" paint-order="stroke fill markers" d=" M 496.0666666666666 694.4933333333332 L 595.28 694.4933333333332 L 595.28 793.7066666666666 Z" fill-opacity="1"/><path fill="rgb(230,49,90)" stroke="none" paint-order="stroke fill markers" d=" M 496.0666666666666 793.7066666666666 L 496.0666666666666 892.92 L 595.28 892.92 Z" fill-opacity="1"/><path fill="rgb(118,193,213)" stroke="none" paint-order="stroke fill markers" d=" M 496.0666666666666 793.7066666666666 L 595.28 793.7066666666666 L 595.28 892.92 Z" fill-opacity="1"/><g transform="scale(1,1)"><path fill="rgb(230,49,90)" stroke="none" paint-order="stroke fill markers" d=" M 0 0 L 0 99.21333333333332 L 99.21333333333332 99.21333333333332 Z" fill-opacity="1"/><path fill="rgb(247,201,23)" stroke="none" paint-order="stroke fill markers" d=" M 0 0 L 99.21333333333332 0 L 99.21333333333332 99.21333333333332 Z" fill-opacity="1"/><path fill="rgb(247,201,23)" stroke="none" paint-order="stroke fill markers" d=" M 0 99.21333333333332 L 0 198.42666666666665 L 99.21333333333332 198.42666666666665 Z" fill-opacity="1"/><path fill="rgb(118,193,213)" stroke="none" paint-order="stroke fill markers" d=" M 0 99.21333333333332 L 99.21333333333332 99.21333333333332 L 99.21333333333332 198.42666666666665 Z" fill-opacity="1"/><path fill="rgb(230,49,90)" stroke="none" paint-order="stroke fill markers" d=" M 0 198.42666666666665 L 0 297.64 L 99.21333333333332 297.64 Z" fill-opacity="1"/><path fill="rgb(230,49,90)" stroke="none" paint-order="stroke fill markers" d=" M 0 198.42666666666665 L 99.21333333333332 198.42666666666665 L 99.21333333333332 297.64 Z" fill-opacity="1"/><path fill="rgb(247,201,23)" stroke="none" paint-order="stroke fill markers" d=" M 0 297.64 L 0 396.8533333333333 L 99.21333333333332 396.8533333333333 Z" fill-opacity="1"/><path fill="rgb(230,49,90)" stroke="none" paint-order="stroke fill markers" d=" M 0 297.64 L 99.21333333333332 297.64 L 99.21333333333332 396.8533333333333 Z" fill-opacity="1"/><path fill="rgb(230,49,90)" stroke="none" paint-order="stroke fill markers" d=" M 0 396.8533333333333 L 0 496.0666666666666 L 99.21333333333332 496.0666666666666 Z" fill-opacity="1"/><path fill="rgb(118,193,213)" stroke="none" paint-order="stroke fill markers" d=" M 0 396.8533333333333 L 99.21333333333332 396.8533333333333 L 99.21333333333332 496.0666666666666 Z" fill-opacity="1"/><path fill="rgb(230,49,90)" stroke="none" paint-order="stroke fill markers" d=" M 0 496.0666666666666 L 0 595.28 L 99.21333333333332 595.28 Z" fill-opacity="1"/><path fill="rgb(118,193,213)" stroke="none" paint-order="stroke fill markers" d=" M 0 496.0666666666666 L 99.21333333333332 496.0666666666666 L 99.21333333333332 595.28 Z" fill-opacity="1"/><path fill="rgb(247,201,23)" stroke="none" paint-order="stroke fill markers" d=" M 0 595.28 L 0 694.4933333333333 L 99.21333333333332 694.4933333333333 Z" fill-opacity="1"/><path fill="rgb(230,49,90)" stroke="none" paint-order="stroke fill markers" d=" M 0 595.28 L 99.21333333333332 595.28 L 99.21333333333332 694.4933333333333 Z" fill-opacity="1"/><path fill="rgb(230,49,90)" stroke="none" paint-order="stroke fill markers" d=" M 0 694.4933333333332 L 0 793.7066666666666 L 99.21333333333332 793.7066666666666 Z" fill-opacity="1"/><path fill="rgb(118,193,213)" stroke="none" paint-order="stroke fill markers" d=" M 0 694.4933333333332 L 99.21333333333332 694.4933333333332 L 99.21333333333332 793.7066666666666 Z" fill-opacity="1"/><path fill="rgb(230,49,90)" stroke="none" paint-order="stroke fill markers" d=" M 0 793.7066666666666 L 0 892.92 L 99.21333333333332 892.92 Z" fill-opacity="1"/><path fill="rgb(247,201,23)" stroke="none" paint-order="stroke fill markers" d=" M 0 793.7066666666666 L 99.21333333333332 793.7066666666666 L 99.21333333333332 892.92 Z" fill-opacity="1"/><path fill="rgb(247,201,23)" stroke="none" paint-order="stroke fill markers" d=" M 99.21333333333332 0 L 99.21333333333332 99.21333333333332 L 198.42666666666665 99.21333333333332 Z" fill-opacity="1"/><path fill="rgb(230,49,90)" stroke="none" paint-order="stroke fill markers" d=" M 99.21333333333332 0 L 198.42666666666665 0 L 198.42666666666665 99.21333333333332 Z" fill-opacity="1"/><path fill="rgb(230,49,90)" stroke="none" paint-order="stroke fill markers" d=" M 99.21333333333332 99.21333333333332 L 99.21333333333332 198.42666666666665 L 198.42666666666665 198.42666666666665 Z" fill-opacity="1"/><path fill="rgb(247,201,23)" stroke="none" paint-order="stroke fill markers" d=" M 99.21333333333332 99.21333333333332 L 198.42666666666665 99.21333333333332 L 198.42666666666665 198.42666666666665 Z" fill-opacity="1"/><path fill="rgb(118,193,213)" stroke="none" paint-order="stroke fill markers" d=" M 99.21333333333332 198.42666666666665 L 99.21333333333332 297.64 L 198.42666666666665 297.64 Z" fill-opacity="1"/><path fill="rgb(247,201,23)" stroke="none" paint-order="stroke fill markers" d=" M 99.21333333333332 198.42666666666665 L 198.42666666666665 198.42666666666665 L 198.42666666666665 297.64 Z" fill-opacity="1"/><path fill="rgb(230,49,90)" stroke="none" paint-order="stroke fill markers" d=" M 99.21333333333332 297.64 L 99.21333333333332 396.8533333333333 L 198.42666666666665 396.8533333333333 Z" fill-opacity="1"/><path fill="rgb(247,201,23)" stroke="none" paint-order="stroke fill markers" d=" M 99.21333333333332 297.64 L 198.42666666666665 297.64 L 198.42666666666665 396.8533333333333 Z" fill-opacity="1"/><path fill="rgb(118,193,213)" stroke="none" paint-order="stroke fill markers" d=" M 99.21333333333332 396.8533333333333 L 99.21333333333332 496.0666666666666 L 198.42666666666665 496.0666666666666 Z" fill-opacity="1"/><path fill="rgb(247,201,23)" stroke="none" paint-order="stroke fill markers" d=" M 99.21333333333332 396.8533333333333 L 198.42666666666665 396.8533333333333 L 198.42666666666665 496.0666666666666 Z" fill-opacity="1"/><path fill="rgb(247,201,23)" stroke="none" paint-order="stroke fill markers" d=" M 99.21333333333332 496.0666666666666 L 99.21333333333332 595.28 L 198.42666666666665 595.28 Z" fill-opacity="1"/><path fill="rgb(230,49,90)" stroke="none" paint-order="stroke fill markers" d=" M 99.21333333333332 496.0666666666666 L 198.42666666666665 496.0666666666666 L 198.42666666666665 595.28 Z" fill-opacity="1"/><path fill="rgb(247,201,23)" stroke="none" paint-order="stroke fill markers" d=" M 99.21333333333332 595.28 L 99.21333333333332 694.4933333333333 L 198.42666666666665 694.4933333333333 Z" fill-opacity="1"/><path fill="rgb(247,201,23)" stroke="none" paint-order="stroke fill markers" d=" M 99.21333333333332 595.28 L 198.42666666666665 595.28 L 198.42666666666665 694.4933333333333 Z" fill-opacity="1"/><path fill="rgb(247,201,23)" stroke="none" paint-order="stroke fill markers" d=" M 99.21333333333332 694.4933333333332 L 99.21333333333332 793.7066666666666 L 198.42666666666665 793.7066666666666 Z" fill-opacity="1"/><path fill="rgb(230,49,90)" stroke="none" paint-order="stroke fill markers" d=" M 99.21333333333332 694.4933333333332 L 198.42666666666665 694.4933333333332 L 198.42666666666665 793.7066666666666 Z" fill-opacity="1"/><path fill="rgb(247,201,23)" stroke="none" paint-order="stroke fill markers" d=" M 99.21333333333332 793.7066666666666 L 99.21333333333332 892.92 L 198.42666666666665 892.92 Z" fill-opacity="1"/><path fill="rgb(118,193,213)" stroke="none" paint-order="stroke fill markers" d=" M 99.21333333333332 793.7066666666666 L 198.42666666666665 793.7066666666666 L 198.42666666666665 892.92 Z" fill-opacity="1"/><path fill="rgb(247,201,23)" stroke="none" paint-order="stroke fill markers" d=" M 198.42666666666665 0 L 198.42666666666665 99.21333333333332 L 297.64 99.21333333333332 Z" fill-opacity="1"/><path fill="rgb(230,49,90)" stroke="none" paint-order="stroke fill markers" d=" M 198.42666666666665 0 L 297.64 0 L 297.64 99.21333333333332 Z" fill-opacity="1"/><path fill="rgb(230,49,90)" stroke="none" paint-order="stroke fill markers" d=" M 198.42666666666665 99.21333333333332 L 198.42666666666665 198.42666666666665 L 297.64 198.42666666666665 Z" fill-opacity="1"/><path fill="rgb(118,193,213)" stroke="none" paint-order="stroke fill markers" d=" M 198.42666666666665 99.21333333333332 L 297.64 99.21333333333332 L 297.64 198.42666666666665 Z" fill-opacity="1"/><path fill="rgb(118,193,213)" stroke="none" paint-order="stroke fill markers" d=" M 198.42666666666665 198.42666666666665 L 198.42666666666665 297.64 L 297.64 297.64 Z" fill-opacity="1"/><path fill="rgb(118,193,213)" stroke="none" paint-order="stroke fill markers" d=" M 198.42666666666665 198.42666666666665 L 297.64 198.42666666666665 L 297.64 297.64 Z" fill-opacity="1"/><path fill="rgb(118,193,213)" stroke="none" paint-order="stroke fill markers" d=" M 198.42666666666665 297.64 L 198.42666666666665 396.8533333333333 L 297.64 396.8533333333333 Z" fill-opacity="1"/><path fill="rgb(247,201,23)" stroke="none" paint-order="stroke fill markers" d=" M 198.42666666666665 297.64 L 297.64 297.64 L 297.64 396.8533333333333 Z" fill-opacity="1"/><path fill="rgb(118,193,213)" stroke="none" paint-order="stroke fill markers" d=" M 198.42666666666665 396.8533333333333 L 198.42666666666665 496.0666666666666 L 297.64 496.0666666666666 Z" fill-opacity="1"/><path fill="rgb(230,49,90)" stroke="none" paint-order="stroke fill markers" d=" M 198.42666666666665 396.8533333333333 L 297.64 396.8533333333333 L 297.64 496.0666666666666 Z" fill-opacity="1"/><path fill="rgb(247,201,23)" stroke="none" paint-order="stroke fill markers" d=" M 198.42666666666665 496.0666666666666 L 198.42666666666665 595.28 L 297.64 595.28 Z" fill-opacity="1"/><path fill="rgb(247,201,23)" stroke="none" paint-order="stroke fill markers" d=" M 198.42666666666665 496.0666666666666 L 297.64 496.0666666666666 L 297.64 595.28 Z" fill-opacity="1"/><path fill="rgb(118,193,213)" stroke="none" paint-order="stroke fill markers" d=" M 198.42666666666665 595.28 L 198.42666666666665 694.4933333333333 L 297.64 694.4933333333333 Z" fill-opacity="1"/><path fill="rgb(230,49,90)" stroke="none" paint-order="stroke fill markers" d=" M 198.42666666666665 595.28 L 297.64 595.28 L 297.64 694.4933333333333 Z" fill-opacity="1"/><path fill="rgb(118,193,213)" stroke="none" paint-order="stroke fill markers" d=" M 198.42666666666665 694.4933333333332 L 198.42666666666665 793.7066666666666 L 297.64 793.7066666666666 Z" fill-opacity="1"/><path fill="rgb(230,49,90)" stroke="none" paint-order="stroke fill markers" d=" M 198.42666666666665 694.4933333333332 L 297.64 694.4933333333332 L 297.64 793.7066666666666 Z" fill-opacity="1"/><path fill="rgb(230,49,90)" stroke="none" paint-order="stroke fill markers" d=" M 198.42666666666665 793.7066666666666 L 198.42666666666665 892.92 L 297.64 892.92 Z" fill-opacity="1"/><path fill="rgb(247,201,23)" stroke="none" paint-order="stroke fill markers" d=" M 198.42666666666665 793.7066666666666 L 297.64 793.7066666666666 L 297.64 892.92 Z" fill-opacity="1"/><path fill="rgb(230,49,90)" stroke="none" paint-order="stroke fill markers" d=" M 297.64 0 L 297.64 99.21333333333332 L 396.8533333333333 99.21333333333332 Z" fill-opacity="1"/><path fill="rgb(118,193,213)" stroke="none" paint-order="stroke fill markers" d=" M 297.64 0 L 396.8533333333333 0 L 396.8533333333333 99.21333333333332 Z" fill-opacity="1"/><path fill="rgb(247,201,23)" stroke="none" paint-order="stroke fill markers" d=" M 297.64 99.21333333333332 L 297.64 198.42666666666665 L 396.8533333333333 198.42666666666665 Z" fill-opacity="1"/><path fill="rgb(247,201,23)" stroke="none" paint-order="stroke fill markers" d=" M 297.64 99.21333333333332 L 396.8533333333333 99.21333333333332 L 396.8533333333333 198.42666666666665 Z" fill-opacity="1"/><path fill="rgb(118,193,213)" stroke="none" paint-order="stroke fill markers" d=" M 297.64 198.42666666666665 L 297.64 297.64 L 396.8533333333333 297.64 Z" fill-opacity="1"/><path fill="rgb(247,201,23)" stroke="none" paint-order="stroke fill markers" d=" M 297.64 198.42666666666665 L 396.8533333333333 198.42666666666665 L 396.8533333333333 297.64 Z" fill-opacity="1"/><path fill="rgb(230,49,90)" stroke="none" paint-order="stroke fill markers" d=" M 297.64 297.64 L 297.64 396.8533333333333 L 396.8533333333333 396.8533333333333 Z" fill-opacity="1"/><path fill="rgb(230,49,90)" stroke="none" paint-order="stroke fill markers" d=" M 297.64 297.64 L 396.8533333333333 297.64 L 396.8533333333333 396.8533333333333 Z" fill-opacity="1"/><path fill="rgb(118,193,213)" stroke="none" paint-order="stroke fill markers" d=" M 297.64 396.8533333333333 L 297.64 496.0666666666666 L 396.8533333333333 496.0666666666666 Z" fill-opacity="1"/><path fill="rgb(118,193,213)" stroke="none" paint-order="stroke fill markers" d=" M 297.64 396.8533333333333 L 396.8533333333333 396.8533333333333 L 396.8533333333333 496.0666666666666 Z" fill-opacity="1"/><path fill="rgb(230,49,90)" stroke="none" paint-order="stroke fill markers" d=" M 297.64 496.0666666666666 L 297.64 595.28 L 396.8533333333333 595.28 Z" fill-opacity="1"/><path fill="rgb(247,201,23)" stroke="none" paint-order="stroke fill markers" d=" M 297.64 496.0666666666666 L 396.8533333333333 496.0666666666666 L 396.8533333333333 595.28 Z" fill-opacity="1"/><path fill="rgb(230,49,90)" stroke="none" paint-order="stroke fill markers" d=" M 297.64 595.28 L 297.64 694.4933333333333 L 396.8533333333333 694.4933333333333 Z" fill-opacity="1"/><path fill="rgb(118,193,213)" stroke="none" paint-order="stroke fill markers" d=" M 297.64 595.28 L 396.8533333333333 595.28 L 396.8533333333333 694.4933333333333 Z" fill-opacity="1"/><path fill="rgb(118,193,213)" stroke="none" paint-order="stroke fill markers" d=" M 297.64 694.4933333333332 L 297.64 793.7066666666666 L 396.8533333333333 793.7066666666666 Z" fill-opacity="1"/><path fill="rgb(118,193,213)" stroke="none" paint-order="stroke fill markers" d=" M 297.64 694.4933333333332 L 396.8533333333333 694.4933333333332 L 396.8533333333333 793.7066666666666 Z" fill-opacity="1"/><path fill="rgb(230,49,90)" stroke="none" paint-order="stroke fill markers" d=" M 297.64 793.7066666666666 L 297.64 892.92 L 396.8533333333333 892.92 Z" fill-opacity="1"/><path fill="rgb(230,49,90)" stroke="none" paint-order="stroke fill markers" d=" M 297.64 793.7066666666666 L 396.8533333333333 793.7066666666666 L 396.8533333333333 892.92 Z" fill-opacity="1"/><path fill="rgb(230,49,90)" stroke="none" paint-order="stroke fill markers" d=" M 396.8533333333333 0 L 396.8533333333333 99.21333333333332 L 496.0666666666666 99.21333333333332 Z" fill-opacity="1"/><path fill="rgb(230,49,90)" stroke="none" paint-order="stroke fill markers" d=" M 396.8533333333333 0 L 496.0666666666666 0 L 496.0666666666666 99.21333333333332 Z" fill-opacity="1"/><path fill="rgb(230,49,90)" stroke="none" paint-order="stroke fill markers" d=" M 396.8533333333333 99.21333333333332 L 396.8533333333333 198.42666666666665 L 496.0666666666666 198.42666666666665 Z" fill-opacity="1"/><path fill="rgb(230,49,90)" stroke="none" paint-order="stroke fill markers" d=" M 396.8533333333333 99.21333333333332 L 496.0666666666666 99.21333333333332 L 496.0666666666666 198.42666666666665 Z" fill-opacity="1"/><path fill="rgb(247,201,23)" stroke="none" paint-order="stroke fill markers" d=" M 396.8533333333333 198.42666666666665 L 396.8533333333333 297.64 L 496.0666666666666 297.64 Z" fill-opacity="1"/><path fill="rgb(230,49,90)" stroke="none" paint-order="stroke fill markers" d=" M 396.8533333333333 198.42666666666665 L 496.0666666666666 198.42666666666665 L 496.0666666666666 297.64 Z" fill-opacity="1"/><path fill="rgb(118,193,213)" stroke="none" paint-order="stroke fill markers" d=" M 396.8533333333333 297.64 L 396.8533333333333 396.8533333333333 L 496.0666666666666 396.8533333333333 Z" fill-opacity="1"/><path fill="rgb(247,201,23)" stroke="none" paint-order="stroke fill markers" d=" M 396.8533333333333 297.64 L 496.0666666666666 297.64 L 496.0666666666666 396.8533333333333 Z" fill-opacity="1"/><path fill="rgb(118,193,213)" stroke="none" paint-order="stroke fill markers" d=" M 396.8533333333333 396.8533333333333 L 396.8533333333333 496.0666666666666 L 496.0666666666666 496.0666666666666 Z" fill-opacity="1"/><path fill="rgb(247,201,23)" stroke="none" paint-order="stroke fill markers" d=" M 396.8533333333333 396.8533333333333 L 496.0666666666666 396.8533333333333 L 496.0666666666666 496.0666666666666 Z" fill-opacity="1"/><path fill="rgb(230,49,90)" stroke="none" paint-order="stroke fill markers" d=" M 396.8533333333333 496.0666666666666 L 396.8533333333333 595.28 L 496.0666666666666 595.28 Z" fill-opacity="1"/><path fill="rgb(230,49,90)" stroke="none" paint-order="stroke fill markers" d=" M 396.8533333333333 496.0666666666666 L 496.0666666666666 496.0666666666666 L 496.0666666666666 595.28 Z" fill-opacity="1"/><path fill="rgb(247,201,23)" stroke="none" paint-order="stroke fill markers" d=" M 396.8533333333333 595.28 L 396.8533333333333 694.4933333333333 L 496.0666666666666 694.4933333333333 Z" fill-opacity="1"/><path fill="rgb(230,49,90)" stroke="none" paint-order="stroke fill markers" d=" M 396.8533333333333 595.28 L 496.0666666666666 595.28 L 496.0666666666666 694.4933333333333 Z" fill-opacity="1"/><path fill="rgb(118,193,213)" stroke="none" paint-order="stroke fill markers" d=" M 396.8533333333333 694.4933333333332 L 396.8533333333333 793.7066666666666 L 496.0666666666666 793.7066666666666 Z" fill-opacity="1"/><path fill="rgb(118,193,213)" stroke="none" paint-order="stroke fill markers" d=" M 396.8533333333333 694.4933333333332 L 496.0666666666666 694.4933333333332 L 496.0666666666666 793.7066666666666 Z" fill-opacity="1"/><path fill="rgb(230,49,90)" stroke="none" paint-order="stroke fill markers" d=" M 396.8533333333333 793.7066666666666 L 396.8533333333333 892.92 L 496.0666666666666 892.92 Z" fill-opacity="1"/><path fill="rgb(230,49,90)" stroke="none" paint-order="stroke fill markers" d=" M 396.8533333333333 793.7066666666666 L 496.0666666666666 793.7066666666666 L 496.0666666666666 892.92 Z" fill-opacity="1"/><path fill="rgb(118,193,213)" stroke="none" paint-order="stroke fill markers" d=" M 496.0666666666666 0 L 496.0666666666666 99.21333333333332 L 595.28 99.21333333333332 Z" fill-opacity="1"/><path fill="rgb(247,201,23)" stroke="none" paint-order="stroke fill markers" d=" M 496.0666666666666 0 L 595.28 0 L 595.28 99.21333333333332 Z" fill-opacity="1"/><path fill="rgb(230,49,90)" stroke="none" paint-order="stroke fill markers" d=" M 496.0666666666666 99.21333333333332 L 496.0666666666666 198.42666666666665 L 595.28 198.42666666666665 Z" fill-opacity="1"/><path fill="rgb(118,193,213)" stroke="none" paint-order="stroke fill markers" d=" M 496.0666666666666 99.21333333333332 L 595.28 99.21333333333332 L 595.28 198.42666666666665 Z" fill-opacity="1"/><path fill="rgb(247,201,23)" stroke="none" paint-order="stroke fill markers" d=" M 496.0666666666666 198.42666666666665 L 496.0666666666666 297.64 L 595.28 297.64 Z" fill-opacity="1"/><path fill="rgb(230,49,90)" stroke="none" paint-order="stroke fill markers" d=" M 496.0666666666666 198.42666666666665 L 595.28 198.42666666666665 L 595.28 297.64 Z" fill-opacity="1"/><path fill="rgb(118,193,213)" stroke="none" paint-order="stroke fill markers" d=" M 496.0666666666666 297.64 L 496.0666666666666 396.8533333333333 L 595.28 396.8533333333333 Z" fill-opacity="1"/><path fill="rgb(118,193,213)" stroke="none" paint-order="stroke fill markers" d=" M 496.0666666666666 297.64 L 595.28 297.64 L 595.28 396.8533333333333 Z" fill-opacity="1"/><path fill="rgb(230,49,90)" stroke="none" paint-order="stroke fill markers" d=" M 496.0666666666666 396.8533333333333 L 496.0666666666666 496.0666666666666 L 595.28 496.0666666666666 Z" fill-opacity="1"/><path fill="rgb(247,201,23)" stroke="none" paint-order="stroke fill markers" d=" M 496.0666666666666 396.8533333333333 L 595.28 396.8533333333333 L 595.28 496.0666666666666 Z" fill-opacity="1"/><path fill="rgb(230,49,90)" stroke="none" paint-order="stroke fill markers" d=" M 496.0666666666666 496.0666666666666 L 496.0666666666666 595.28 L 595.28 595.28 Z" fill-opacity="1"/><path fill="rgb(230,49,90)" stroke="none" paint-order="stroke fill markers" d=" M 496.0666666666666 496.0666666666666 L 595.28 496.0666666666666 L 595.28 595.28 Z" fill-opacity="1"/><path fill="rgb(118,193,213)" stroke="none" paint-order="stroke fill markers" d=" M 496.0666666666666 595.28 L 496.0666666666666 694.4933333333333 L 595.28 694.4933333333333 Z" fill-opacity="1"/><path fill="rgb(247,201,23)" stroke="none" paint-order="stroke fill markers" d=" M 496.0666666666666 595.28 L 595.28 595.28 L 595.28 694.4933333333333 Z" fill-opacity="1"/><path fill="rgb(230,49,90)" stroke="none" paint-order="stroke fill markers" d=" M 496.0666666666666 694.4933333333332 L 496.0666666666666 793.7066666666666 L 595.28 793.7066666666666 Z" fill-opacity="1"/><path fill="rgb(247,201,23)" stroke="none" paint-order="stroke fill markers" d=" M 496.0666666666666 694.4933333333332 L 595.28 694.4933333333332 L 595.28 793.7066666666666 Z" fill-opacity="1"/><path fill="rgb(247,201,23)" stroke="none" paint-order="stroke fill markers" d=" M 496.0666666666666 793.7066666666666 L 496.0666666666666 892.92 L 595.28 892.92 Z" fill-opacity="1"/><path fill="rgb(118,193,213)" stroke="none" paint-order="stroke fill markers" d=" M 496.0666666666666 793.7066666666666 L 595.28 793.7066666666666 L 595.28 892.92 Z" fill-opacity="1"/></g></g></g></g></svg>